<?xml version="1.0" encoding="UTF-8"?>
<!DOCTYPE svg PUBLIC "-//W3C//DTD SVG 1.1//EN" "http://www.w3.org/Graphics/SVG/1.1/DTD/svg11.dtd">
<svg xmlns="http://www.w3.org/2000/svg" version="1.1" width="512px" height="512px" style="shape-rendering:geometricPrecision; text-rendering:geometricPrecision; image-rendering:optimizeQuality; fill-rule:evenodd; clip-rule:evenodd" xmlns:xlink="http://www.w3.org/1999/xlink">
<g><path style="opacity:0.993" fill="#010000" d="M 110.5,-0.5 C 125.833,-0.5 141.167,-0.5 156.5,-0.5C 160.531,1.55346 162.531,4.88679 162.5,9.5C 161.775,12.7688 160.108,15.6022 157.5,18C 148.902,19.3759 140.235,19.8759 131.5,19.5C 131.667,72.1677 131.5,124.834 131,177.5C 129.048,185.064 124.215,187.897 116.5,186C 114.622,184.457 113.122,182.624 112,180.5C 111.5,127.501 111.333,74.501 111.5,21.5C 98.0795,25.7562 89.5795,34.7562 86,48.5C 85.1667,147.835 85.3333,247.168 86.5,346.5C 93.7424,340.379 102.076,336.713 111.5,335.5C 111.334,325.828 111.5,316.161 112,306.5C 116.017,300.204 121.183,299.037 127.5,303C 129.16,304.488 130.16,306.321 130.5,308.5C 130.5,317.167 130.5,325.833 130.5,334.5C 229.001,334.833 327.335,334.499 425.5,333.5C 425.5,228.833 425.5,124.167 425.5,19.5C 356.166,19.6667 286.833,19.5 217.5,19C 214.044,16.5599 211.711,13.3932 210.5,9.5C 210.997,5.15708 212.997,1.82375 216.5,-0.5C 291.167,-0.5 365.833,-0.5 440.5,-0.5C 442.134,0.971672 443.634,2.63834 445,4.5C 445.667,119.167 445.667,233.833 445,348.5C 424.377,376.093 424.377,403.76 445,431.5C 446.772,437.467 445.272,442.301 440.5,446C 367.834,446.5 295.167,446.667 222.5,446.5C 222.667,466.169 222.5,485.836 222,505.5C 220.64,508.023 218.807,510.023 216.5,511.5C 213.5,511.5 210.5,511.5 207.5,511.5C 193.567,498.338 180.067,484.671 167,470.5C 153.272,484.396 139.438,498.062 125.5,511.5C 122.5,511.5 119.5,511.5 116.5,511.5C 113.8,509.954 111.967,507.621 111,504.5C 110.5,484.836 110.333,465.169 110.5,445.5C 88.5349,440.371 74.0349,427.038 67,405.5C 65.8446,344.364 65.3446,283.197 65.5,222C 65.6667,162.833 65.8333,103.667 66,44.5C 71.7167,20.2841 86.5501,5.28405 110.5,-0.5 Z"/></g>
<g><path style="opacity:0.939" fill="#040201" d="M 176.5,-0.5 C 179.5,-0.5 182.5,-0.5 185.5,-0.5C 189.531,1.55346 191.531,4.88679 191.5,9.5C 190.367,15.7932 186.533,19.1265 180,19.5C 174.561,18.2301 171.395,14.8968 170.5,9.5C 170.482,4.87187 172.482,1.53854 176.5,-0.5 Z"/></g>
<g><path style="opacity:1" fill="#fea653" d="M 162.5,9.5 C 165.167,9.5 167.833,9.5 170.5,9.5C 171.395,14.8968 174.561,18.2301 180,19.5C 186.533,19.1265 190.367,15.7932 191.5,9.5C 197.833,9.5 204.167,9.5 210.5,9.5C 211.711,13.3932 214.044,16.5599 217.5,19C 286.833,19.5 356.166,19.6667 425.5,19.5C 425.5,124.167 425.5,228.833 425.5,333.5C 327.5,333.5 229.5,333.5 131.5,333.5C 131.826,324.983 131.493,316.65 130.5,308.5C 130.16,306.321 129.16,304.488 127.5,303C 121.183,299.037 116.017,300.204 112,306.5C 111.5,316.161 111.334,325.828 111.5,335.5C 102.076,336.713 93.7424,340.379 86.5,346.5C 85.3333,247.168 85.1667,147.835 86,48.5C 89.5795,34.7562 98.0795,25.7562 111.5,21.5C 111.333,74.501 111.5,127.501 112,180.5C 113.122,182.624 114.622,184.457 116.5,186C 124.215,187.897 129.048,185.064 131,177.5C 131.5,124.834 131.667,72.1677 131.5,19.5C 140.235,19.8759 148.902,19.3759 157.5,18C 160.108,15.6022 161.775,12.7688 162.5,9.5 Z"/></g>
<g><path style="opacity:1" fill="#020201" d="M 261.5,67.5 C 306.191,63.4393 342.024,79.1059 369,114.5C 396.987,160.822 394.654,205.489 362,248.5C 326.98,284.916 285.48,295.083 237.5,279C 192.924,259.047 169.924,224.547 168.5,175.5C 171.763,124.744 197.096,90.2445 244.5,72C 250.432,70.9357 256.099,69.4357 261.5,67.5 Z"/></g>
<g><path style="opacity:1" fill="#00c7ad" d="M 262.5,87.5 C 304.337,83.3363 336.17,99.0029 358,134.5C 375.341,171.076 371.341,205.076 346,236.5C 318.605,264.141 286.105,272.641 248.5,262C 203.213,242.275 183.713,207.775 190,158.5C 200.318,120.608 224.485,96.9415 262.5,87.5 Z"/></g>
<g><path style="opacity:1" fill="#010303" d="M 238.5,122.5 C 274.494,121.576 301.994,136.243 321,166.5C 330.383,182.021 334.05,198.687 332,216.5C 326.755,222.778 321.088,223.111 315,217.5C 314.488,190.305 303.322,168.805 281.5,153C 269.551,145.762 256.551,142.095 242.5,142C 235.647,140.492 232.814,136.325 234,129.5C 234.904,126.767 236.404,124.433 238.5,122.5 Z"/></g>
<g><path style="opacity:1" fill="#010303" d="M 238.5,162.5 C 267.832,161.998 285.999,175.998 293,204.5C 294.948,211.369 293.115,216.869 287.5,221C 282.563,222.369 278.396,221.203 275,217.5C 273.637,195.137 261.804,182.97 239.5,181C 234.574,178.647 232.74,174.814 234,169.5C 234.904,166.767 236.404,164.433 238.5,162.5 Z"/></g>
<g><path style="opacity:1" fill="#020706" d="M 238.5,202.5 C 249.858,201.018 254.358,205.685 252,216.5C 249.058,221.153 244.891,222.653 239.5,221C 233.516,217.637 232.016,212.803 235,206.5C 236.376,205.295 237.542,203.962 238.5,202.5 Z"/></g>
<g><path style="opacity:1" fill="#b07339" d="M 130.5,308.5 C 131.493,316.65 131.826,324.983 131.5,333.5C 229.5,333.5 327.5,333.5 425.5,333.5C 327.335,334.499 229.001,334.833 130.5,334.5C 130.5,325.833 130.5,317.167 130.5,308.5 Z"/></g>
<g><path style="opacity:1" fill="#444444" d="M 119.5,354.5 C 218.667,353.168 318.001,353.168 417.5,354.5C 417.376,355.107 417.043,355.44 416.5,355.5C 317.668,354.501 218.668,354.167 119.5,354.5 Z"/></g>
<g><path style="opacity:1" fill="#f7f7f7" d="M 119.5,354.5 C 218.668,354.167 317.668,354.501 416.5,355.5C 412.978,363.438 410.978,371.771 410.5,380.5C 401.494,380.334 392.494,380.5 383.5,381C 378.289,385.164 377.122,390.33 380,396.5C 381.8,398.317 383.966,399.484 386.5,400C 394.493,400.5 402.493,400.666 410.5,400.5C 412.023,409.399 414.356,418.066 417.5,426.5C 352.5,426.5 287.5,426.5 222.5,426.5C 222.5,417.833 222.5,409.167 222.5,400.5C 228.176,400.666 233.843,400.499 239.5,400C 245.698,397.462 247.865,392.962 246,386.5C 244.833,384 243,382.167 240.5,381C 199.5,380.333 158.5,380.333 117.5,381C 115,382.167 113.167,384 112,386.5C 111.5,399.162 111.333,411.829 111.5,424.5C 96.7681,419.926 88.2681,409.926 86,394.5C 85.008,377.317 92.1747,364.817 107.5,357C 111.313,355.228 115.313,354.395 119.5,354.5 Z"/></g>
<g><path style="opacity:1" fill="#0b0b0b" d="M 354.5,380.5 C 364.362,379.338 368.862,383.671 368,393.5C 362.127,402.423 355.794,402.756 349,394.5C 348.333,391.833 348.333,389.167 349,386.5C 350.36,383.977 352.193,381.977 354.5,380.5 Z"/></g>
<g><path style="opacity:1" fill="#fdcd32" d="M 131.5,400.5 C 155.167,400.5 178.833,400.5 202.5,400.5C 202.667,425.836 202.5,451.169 202,476.5C 192.5,467 183,457.5 173.5,448C 169.649,445.365 165.649,445.031 161.5,447C 151.667,456.833 141.833,466.667 132,476.5C 131.5,451.169 131.333,425.836 131.5,400.5 Z"/></g>
</svg>
