<?xml version="1.0" encoding="utf-8"?>
<!DOCTYPE svg PUBLIC "-//W3C//DTD SVG 20010904//EN" "http://www.w3.org/TR/2001/REC-SVG-20010904/DTD/svg10.dtd">
<svg version="1.0" xmlns="http://www.w3.org/2000/svg" width="1122pt" height="930pt" viewBox="0 0 1122 930" style="" preserveAspectRatio="xMidYMid meet">
<g fill="#D9D9D8FD">
<path d="M 411.500 85.019 C 404.478 86.424 393.927 90.883 388.908 94.568 C 377.588 102.877 367.607 117.644 365.095 129.799 C 363.540 137.326 363.552 489.756 365.108 497.201 C 366.257 502.702 371.602 514.602 374.000 517.000 C 374.275 517.275 376.236 519.660 378.357 522.299 C 383.778 529.044 394.982 536.633 403.204 539.131 L 410.000 541.195 410.022 569.847 C 410.046 600.858 410.072 601.013 415.684 603.883 C 418.148 605.143 423.917 605.347 425.636 604.235 C 426.260 603.831 435.429 595.175 446.011 585.000 C 456.592 574.825 465.854 566.500 466.591 566.500 C 467.328 566.500 476.115 574.375 486.116 584.000 C 496.118 593.625 505.471 602.285 506.900 603.243 C 510.130 605.410 514.175 605.478 518.128 603.434 C 523.537 600.637 524.000 597.882 524.000 568.532 L 524.000 542.000 634.032 542.000 C 753.509 542.000 748.305 542.242 752.832 536.486 C 756.345 532.020 755.655 528.388 749.655 519.769 C 743.723 511.245 740.491 502.678 738.904 491.264 C 736.752 475.794 741.993 456.836 751.486 445.745 L 755.000 441.640 755.000 267.270 C 755.000 113.366 754.822 92.556 753.483 89.967 C 750.176 83.572 762.473 83.989 580.800 84.110 C 489.885 84.170 413.700 84.579 411.500 85.019 M 735.500 266.000 L 735.500 428.500 583.061 428.753 C 475.333 428.932 430.427 428.692 429.959 427.933 C 429.594 427.343 429.201 420.765 429.085 413.316 C 428.958 405.095 428.416 399.038 427.708 397.904 C 425.976 395.130 421.236 393.767 417.551 394.983 C 412.370 396.693 411.600 399.037 411.023 414.866 L 410.500 429.232 405.000 430.948 C 397.789 433.198 391.164 436.598 387.743 439.803 C 385.884 441.546 384.658 442.058 383.975 441.375 C 383.298 440.698 383.052 389.461 383.231 286.931 L 383.500 133.500 385.896 127.551 C 389.480 118.654 400.542 108.000 408.750 105.540 L 411.000 104.865 411.000 185.465 C 411.000 273.633 410.886 271.866 416.691 274.073 C 418.225 274.656 420.933 274.860 422.711 274.526 C 429.350 273.281 429.000 278.155 429.000 186.944 C 429.000 141.508 429.301 104.032 429.670 103.663 C 430.038 103.295 499.001 103.108 582.920 103.247 L 735.500 103.500 735.500 266.000 M 726.000 448.378 C 726.000 449.136 725.268 451.498 724.373 453.628 C 723.478 455.758 721.969 461.325 721.019 466.000 L 719.293 474.500 705.555 475.000 C 692.595 475.472 691.708 475.635 689.896 477.876 C 687.010 481.447 686.524 484.779 688.336 488.579 C 690.276 492.647 691.015 492.838 707.000 493.401 C 713.875 493.643 719.540 493.877 719.590 493.920 C 719.639 493.964 720.254 497.263 720.955 501.250 C 721.657 505.238 723.304 511.074 724.615 514.220 C 725.927 517.366 727.000 520.403 727.000 520.970 C 727.000 521.670 694.157 522.000 624.473 522.000 L 521.945 522.000 522.223 507.750 L 522.500 493.500 531.000 493.249 C 542.247 492.917 543.692 492.497 545.482 489.035 C 547.791 484.569 547.367 481.213 544.077 477.923 L 541.154 475.000 479.511 475.000 C 437.267 475.000 417.233 475.340 415.850 476.080 C 411.862 478.214 411.000 482.788 411.000 501.801 C 411.000 511.627 410.709 519.958 410.353 520.314 C 409.026 521.640 397.724 514.479 393.018 509.329 C 382.675 498.013 380.334 481.323 387.179 467.705 C 391.030 460.044 400.643 451.496 408.763 448.514 C 414.362 446.457 726.000 446.323 726.000 448.378 M 503.761 533.250 C 503.905 555.113 503.752 573.000 503.422 573.000 C 503.091 573.000 495.849 566.363 487.327 558.250 C 478.806 550.138 470.859 543.132 469.667 542.682 C 464.958 540.905 461.998 542.825 446.194 557.914 C 437.593 566.125 430.206 572.627 429.778 572.363 C 428.825 571.774 428.728 494.606 429.679 493.655 C 430.052 493.281 446.815 493.094 466.929 493.238 L 503.500 493.500 503.761 533.250 M 502.523 533.000 C 502.510 553.900 502.308 571.000 502.074 571.000 C 501.840 571.000 495.529 564.813 488.049 557.250 C 473.516 542.556 468.984 539.285 464.660 540.371 C 462.085 541.017 444.518 556.674 444.506 558.333 C 444.503 558.792 444.236 558.902 443.913 558.579 C 443.589 558.256 440.571 560.859 437.206 564.364 L 431.087 570.737 431.024 532.868 L 430.961 495.000 466.753 495.000 L 502.546 495.000 502.523 533.000 "/></g>
<g fill="#000000FD">
<path d="M 406.500 87.892 C 396.743 90.737 389.946 94.833 382.440 102.391 C 374.937 109.947 371.203 115.792 367.678 125.500 L 365.500 131.500 365.207 308.000 C 364.990 438.779 365.217 486.681 366.084 492.921 C 368.915 513.285 385.544 532.581 405.000 538.079 C 407.475 538.778 410.063 539.776 410.750 540.298 C 411.698 541.016 412.000 548.105 412.000 569.688 C 412.000 585.985 412.411 598.899 412.962 599.929 C 414.300 602.430 419.435 604.359 422.624 603.558 C 424.182 603.167 433.549 594.924 445.196 583.695 C 456.147 573.138 465.645 564.382 466.303 564.239 C 466.961 564.095 476.570 572.712 487.655 583.388 C 501.693 596.908 508.728 603.001 510.833 603.463 C 513.949 604.148 519.099 602.211 520.687 599.757 C 521.134 599.066 521.725 585.450 522.000 569.500 L 522.500 540.500 635.000 540.000 C 722.041 539.613 747.991 539.219 749.670 538.258 C 752.231 536.792 754.352 531.108 753.349 528.403 C 752.960 527.356 751.127 524.495 749.275 522.045 C 741.733 512.070 737.000 497.399 737.000 484.000 C 737.000 470.457 742.178 454.764 749.564 445.924 L 753.000 441.811 753.000 266.360 L 753.000 90.909 750.545 88.455 L 748.091 86.000 580.295 86.071 C 423.585 86.138 412.104 86.258 406.500 87.892 M 735.500 266.000 L 735.500 428.500 583.061 428.753 C 475.333 428.932 430.427 428.692 429.959 427.933 C 429.594 427.343 429.201 420.765 429.085 413.316 C 428.958 405.095 428.416 399.038 427.708 397.904 C 425.976 395.130 421.236 393.767 417.551 394.983 C 412.370 396.693 411.600 399.037 411.023 414.866 L 410.500 429.232 405.000 430.948 C 397.789 433.198 391.164 436.598 387.743 439.803 C 385.884 441.546 384.658 442.058 383.975 441.375 C 383.298 440.698 383.052 389.461 383.231 286.931 L 383.500 133.500 385.896 127.551 C 389.480 118.654 400.542 108.000 408.750 105.540 L 411.000 104.865 411.000 185.465 C 411.000 273.633 410.886 271.866 416.691 274.073 C 418.225 274.656 420.933 274.860 422.711 274.526 C 429.350 273.281 429.000 278.155 429.000 186.944 C 429.000 141.508 429.301 104.032 429.670 103.663 C 430.038 103.295 499.001 103.108 582.920 103.247 L 735.500 103.500 735.500 266.000 M 726.000 448.378 C 726.000 449.136 725.268 451.498 724.373 453.628 C 723.478 455.758 721.969 461.325 721.019 466.000 L 719.293 474.500 705.555 475.000 C 692.595 475.472 691.708 475.635 689.896 477.876 C 687.010 481.447 686.524 484.779 688.336 488.579 C 690.276 492.647 691.015 492.838 707.000 493.401 C 713.875 493.643 719.540 493.877 719.590 493.920 C 719.639 493.964 720.254 497.263 720.955 501.250 C 721.657 505.238 723.304 511.074 724.615 514.220 C 725.927 517.366 727.000 520.403 727.000 520.970 C 727.000 521.670 694.157 522.000 624.473 522.000 L 521.945 522.000 522.223 507.750 L 522.500 493.500 531.000 493.249 C 542.247 492.917 543.692 492.497 545.482 489.035 C 547.791 484.569 547.367 481.213 544.077 477.923 L 541.154 475.000 479.511 475.000 C 437.267 475.000 417.233 475.340 415.850 476.080 C 411.862 478.214 411.000 482.788 411.000 501.801 C 411.000 511.627 410.709 519.958 410.353 520.314 C 409.026 521.640 397.724 514.479 393.018 509.329 C 382.675 498.013 380.334 481.323 387.179 467.705 C 391.030 460.044 400.643 451.496 408.763 448.514 C 414.362 446.457 726.000 446.323 726.000 448.378 M 503.761 533.250 C 503.905 555.113 503.752 573.000 503.422 573.000 C 503.091 573.000 495.849 566.363 487.327 558.250 C 478.806 550.138 470.859 543.132 469.667 542.682 C 464.958 540.905 461.998 542.825 446.194 557.914 C 437.593 566.125 430.206 572.627 429.778 572.363 C 428.825 571.774 428.728 494.606 429.679 493.655 C 430.052 493.281 446.815 493.094 466.929 493.238 L 503.500 493.500 503.761 533.250 M 502.523 533.000 C 502.510 553.900 502.308 571.000 502.074 571.000 C 501.840 571.000 495.529 564.813 488.049 557.250 C 473.516 542.556 468.984 539.285 464.660 540.371 C 462.085 541.017 444.518 556.674 444.506 558.333 C 444.503 558.792 444.236 558.902 443.913 558.579 C 443.589 558.256 440.571 560.859 437.206 564.364 L 431.087 570.737 431.024 532.868 L 430.961 495.000 466.753 495.000 L 502.546 495.000 502.523 533.000 "/></g>
<g fill="#FCA855FD">
<path d="M 429.670 103.663 C 429.301 104.032 429.000 141.508 429.000 186.944 C 429.000 278.155 429.350 273.281 422.711 274.526 C 420.933 274.860 418.225 274.656 416.691 274.073 C 410.886 271.866 411.000 273.633 411.000 185.465 L 411.000 104.865 408.750 105.540 C 400.542 108.000 389.480 118.654 385.896 127.551 L 383.500 133.500 383.231 286.931 C 383.052 389.461 383.298 440.698 383.975 441.375 C 384.658 442.058 385.884 441.546 387.743 439.803 C 391.164 436.598 397.789 433.198 405.000 430.948 L 410.500 429.232 411.023 414.866 C 411.600 399.037 412.370 396.693 417.551 394.983 C 421.236 393.767 425.976 395.130 427.708 397.904 C 428.416 399.038 428.958 405.095 429.085 413.316 C 429.201 420.765 429.594 427.343 429.959 427.933 C 430.427 428.692 475.333 428.932 583.061 428.753 L 735.500 428.500 735.500 266.000 L 735.500 103.500 582.920 103.247 C 499.001 103.108 430.038 103.295 429.670 103.663 M 600.500 154.109 C 609.815 155.415 626.724 161.148 636.000 166.144 C 663.094 180.739 683.667 206.786 691.578 236.509 C 705.249 287.870 680.748 342.021 633.000 365.979 C 602.542 381.263 565.604 381.888 535.505 367.629 C 507.334 354.285 488.582 334.029 477.063 304.500 C 471.688 290.723 470.000 281.587 470.001 266.292 C 470.004 245.700 473.226 231.733 481.910 214.677 C 488.556 201.623 494.105 194.081 504.164 184.432 C 517.555 171.585 530.680 163.659 547.846 158.051 C 564.870 152.490 580.575 151.314 600.500 154.109 "/></g>
<g fill="#000000FD">
<path d="M 576.000 152.662 C 555.425 154.092 535.189 161.019 518.502 172.342 C 509.597 178.384 495.553 192.389 489.853 200.912 C 482.707 211.597 476.259 225.582 473.301 236.817 C 469.839 249.967 468.995 272.319 471.463 285.500 C 474.790 303.268 484.415 323.510 496.327 337.792 C 529.523 377.593 586.455 389.334 633.000 365.979 C 667.963 348.436 691.291 314.239 694.898 275.241 C 698.993 230.979 675.468 187.404 636.000 166.144 C 618.853 156.908 594.296 151.390 576.000 152.662 M 606.198 173.860 C 638.628 182.420 665.446 209.131 674.109 241.500 C 677.015 252.357 677.765 271.624 675.706 282.537 C 669.597 314.930 645.418 343.255 614.500 354.239 C 593.561 361.678 568.391 361.282 548.000 353.192 C 534.887 347.990 520.880 338.222 511.375 327.650 C 505.770 321.416 496.787 306.330 493.535 297.688 C 485.223 275.607 486.560 247.055 496.961 224.500 C 500.208 217.458 509.592 204.664 516.907 197.305 C 528.247 185.897 549.414 175.058 566.238 172.044 C 574.841 170.503 597.358 171.526 606.198 173.860 "/></g>
<g fill="#01C8ADFD">
<path d="M 568.039 173.169 C 554.161 175.151 536.391 182.942 524.465 192.273 C 516.254 198.698 510.255 205.472 503.196 216.293 C 487.013 241.098 484.670 275.938 497.342 303.365 C 509.123 328.862 530.448 347.332 557.000 355.034 C 567.277 358.015 589.206 358.837 600.534 356.664 C 628.360 351.329 652.494 333.222 665.399 308.000 C 677.683 283.991 679.300 260.754 670.521 234.412 C 665.386 219.003 652.900 201.623 640.209 192.218 C 617.982 175.746 594.114 169.446 568.039 173.169 M 597.004 207.445 C 607.999 209.102 621.085 213.018 629.071 217.041 C 637.060 221.066 651.912 231.222 655.950 235.420 C 660.659 240.317 660.740 245.056 656.184 249.127 C 651.264 253.523 648.483 252.983 639.890 245.964 C 621.358 230.828 601.652 224.194 578.527 225.307 C 559.642 226.215 542.358 232.383 529.671 242.741 C 519.943 250.684 517.825 252.000 514.775 252.000 C 510.597 252.000 506.000 247.180 506.000 242.799 C 506.000 238.076 507.827 235.941 518.294 228.430 C 543.364 210.441 569.918 203.361 597.004 207.445 M 603.616 242.790 C 614.616 246.289 627.456 253.609 633.907 260.061 C 637.885 264.039 638.063 268.584 634.411 272.923 C 630.423 277.662 625.935 277.233 618.425 271.393 C 610.404 265.157 602.408 261.269 593.937 259.487 C 584.526 257.507 578.835 257.613 569.756 259.935 C 560.784 262.229 554.641 265.274 546.520 271.451 C 542.294 274.666 539.596 276.000 537.325 276.000 C 529.136 276.000 525.582 266.188 531.518 259.970 C 538.189 252.981 555.152 244.228 567.500 241.404 C 575.936 239.474 595.558 240.227 603.616 242.790 M 592.254 274.478 C 600.302 276.574 606.173 279.544 610.904 283.911 C 615.883 288.508 616.319 292.279 612.411 296.923 C 608.953 301.033 605.328 300.935 598.151 296.539 C 587.176 289.819 577.639 289.854 567.513 296.652 C 558.521 302.689 551.000 300.107 551.000 290.982 C 551.000 287.884 551.687 286.612 554.955 283.660 C 559.958 279.140 565.460 276.327 572.760 274.558 C 580.372 272.713 585.398 272.692 592.254 274.478 M 587.685 306.067 C 593.929 308.433 598.167 314.672 598.167 321.500 C 598.167 330.121 592.447 336.095 583.592 336.723 C 574.218 337.387 567.000 330.641 567.000 321.216 C 567.000 310.094 577.677 302.275 587.685 306.067 "/></g>
<g fill="#D9D9D8FD">
<path d="M 378.500 642.054 C 376.300 642.508 369.550 643.375 363.500 643.981 C 345.712 645.765 346.291 645.588 344.949 649.653 C 344.171 652.012 343.968 656.713 344.356 663.371 C 345.803 688.190 346.192 744.252 345.111 772.045 C 343.776 806.355 343.989 807.978 349.848 808.037 C 351.857 808.057 362.950 808.052 374.500 808.025 C 394.920 807.977 395.551 807.915 397.342 805.764 C 399.068 803.691 399.143 801.849 398.542 776.526 C 398.070 756.662 398.192 749.965 399.003 751.255 C 399.609 752.221 401.263 754.246 402.679 755.755 C 405.741 759.021 419.808 779.982 429.546 795.789 C 433.779 802.660 437.283 807.274 438.500 807.580 C 439.600 807.856 449.275 808.207 460.000 808.361 C 470.725 808.514 480.400 808.988 481.500 809.414 C 483.090 810.030 483.192 809.967 482.000 809.110 C 481.175 808.516 481.008 808.024 481.629 808.015 C 484.542 807.976 484.921 801.392 485.461 741.500 C 485.763 707.950 486.272 673.230 486.592 664.345 C 486.990 653.274 486.819 647.531 486.051 646.095 C 484.957 644.051 484.299 644.000 459.000 644.000 C 433.292 644.000 433.060 644.019 431.890 646.205 C 430.735 648.364 430.952 662.991 432.592 693.500 L 433.184 704.500 430.605 701.500 C 426.020 696.168 415.871 679.018 416.601 677.837 C 417.030 677.143 416.868 676.964 416.190 677.382 C 414.982 678.129 413.103 675.435 405.615 662.217 C 403.034 657.661 401.235 653.429 401.616 652.812 C 402.029 652.145 401.859 651.969 401.197 652.378 C 400.555 652.775 399.449 651.836 398.579 650.153 C 397.750 648.551 395.891 645.836 394.447 644.120 C 392.160 641.402 391.222 641.015 387.161 641.115 C 384.597 641.178 380.700 641.601 378.500 642.054 "/></g>
<g fill="#D9D9D8FD">
<path d="M 499.996 646.008 C 499.229 647.440 499.234 652.814 500.012 664.758 C 501.436 686.610 501.723 737.747 500.633 775.652 C 499.770 805.682 499.775 805.809 501.865 806.928 C 504.832 808.516 593.943 808.726 599.559 807.159 C 612.918 803.430 626.812 786.145 630.068 769.203 C 631.373 762.414 630.323 734.011 628.822 735.511 C 628.547 735.787 627.462 734.324 626.411 732.261 C 625.360 730.197 622.865 726.748 620.868 724.595 L 617.235 720.682 622.249 710.370 C 628.190 698.150 629.225 690.881 626.611 679.741 C 623.303 665.648 615.649 655.798 603.499 650.000 C 591.306 644.180 589.498 644.000 543.325 644.000 C 502.039 644.000 501.046 644.046 499.996 646.008 M 595.087 647.675 C 616.580 655.773 625.991 668.916 626.006 690.855 C 626.011 699.221 625.845 699.845 620.849 710.205 L 615.686 720.910 619.458 725.085 C 634.732 741.992 633.064 775.639 616.026 794.281 C 613.303 797.261 608.291 801.191 604.803 803.083 L 598.500 806.500 550.675 806.512 C 512.964 806.521 502.624 806.252 501.784 805.240 C 501.030 804.332 501.097 791.836 502.014 762.449 C 503.068 728.618 503.071 714.203 502.028 684.519 C 501.324 664.488 501.026 647.376 501.365 646.492 C 501.921 645.042 506.273 644.918 545.741 645.227 C 587.336 645.553 589.776 645.674 595.087 647.675 "/></g>
<g fill="#D9D9D8FD">
<path d="M 409.723 448.954 C 385.389 456.731 376.140 486.344 391.519 507.243 C 395.194 512.236 403.609 518.427 408.250 519.551 L 411.000 520.217 411.000 500.685 L 411.000 481.153 413.589 478.077 L 416.178 475.000 479.134 475.000 L 542.091 475.000 544.545 477.455 C 548.062 480.971 548.000 487.712 544.420 491.075 C 542.158 493.200 540.646 493.561 532.170 493.999 L 522.500 494.500 522.500 508.000 L 522.500 521.500 623.500 521.758 C 679.050 521.899 725.040 521.810 725.700 521.558 C 726.565 521.229 726.251 519.478 724.579 515.300 C 722.561 510.260 721.477 506.255 719.424 496.250 C 718.973 494.055 718.642 494.000 705.904 494.000 L 692.846 494.000 689.923 491.077 C 685.892 487.046 685.843 481.483 689.805 477.687 C 692.559 475.048 692.847 475.000 705.805 475.000 C 713.062 475.000 719.000 474.815 719.000 474.588 C 719.000 472.045 722.285 458.260 723.906 454.000 C 725.057 450.975 725.999 448.163 725.999 447.750 C 726.000 447.338 656.138 447.024 570.750 447.054 C 422.644 447.105 415.234 447.193 409.723 448.954 M 672.314 477.415 C 673.747 478.743 675.213 481.002 675.573 482.434 C 676.967 487.991 671.830 494.000 665.685 494.000 C 662.654 494.000 658.152 490.529 656.895 487.225 C 655.666 483.991 657.398 478.535 660.299 476.503 C 663.630 474.170 669.274 474.598 672.314 477.415 "/></g>
<g fill="#318954FD">
<path d="M 502.827 648.020 C 502.640 648.580 502.871 654.318 503.339 660.770 C 504.062 670.721 504.261 747.975 503.675 791.500 L 503.500 804.500 528.500 804.123 C 542.250 803.915 553.187 804.079 552.804 804.486 C 552.421 804.893 561.394 805.151 572.746 805.059 C 593.440 804.891 595.527 804.604 606.291 800.446 C 607.276 800.066 608.010 800.147 607.922 800.627 C 607.835 801.107 607.873 801.388 608.007 801.250 C 608.140 801.113 608.313 800.663 608.390 800.250 C 608.677 798.717 610.152 797.000 611.181 797.000 C 611.822 797.000 611.705 797.697 610.890 798.750 C 609.762 800.206 609.906 800.184 611.744 798.616 C 612.959 797.580 613.700 796.323 613.390 795.823 C 612.732 794.757 614.790 792.000 616.245 792.000 C 616.795 792.000 616.635 792.788 615.890 793.750 C 614.915 795.008 615.173 794.938 616.808 793.500 C 618.058 792.400 618.613 791.613 618.040 791.750 C 616.458 792.130 616.720 791.335 620.378 784.662 C 631.237 764.856 630.068 740.043 617.629 726.274 C 615.633 724.065 614.000 721.492 614.000 720.557 C 614.000 717.924 619.054 709.915 620.250 710.654 C 620.869 711.037 621.015 710.833 620.600 710.162 C 620.211 709.532 620.352 708.225 620.915 707.258 C 621.479 706.291 622.011 705.950 622.099 706.500 C 622.374 708.229 623.014 702.833 623.626 693.616 C 624.419 681.686 622.816 674.497 617.754 667.271 C 613.414 661.074 608.027 655.760 603.717 653.424 C 602.187 652.594 601.172 651.531 601.462 651.062 C 601.751 650.593 601.279 649.937 600.412 649.605 C 597.997 648.678 597.333 648.912 599.000 650.102 C 600.168 650.936 599.947 651.034 598.000 650.541 C 586.305 647.584 576.992 647.007 540.833 647.004 C 516.126 647.001 503.050 647.351 502.827 648.020 M 571.874 744.435 C 577.602 747.397 578.823 753.937 574.422 758.076 C 572.061 760.297 571.033 760.500 562.172 760.500 C 552.552 760.500 552.499 760.486 552.385 758.000 C 552.322 756.625 551.955 754.760 551.569 753.855 C 550.446 751.226 551.324 744.465 552.750 744.750 C 553.438 744.888 554.000 744.355 554.000 743.566 C 554.000 740.768 565.902 741.347 571.874 744.435 M 567.999 685.752 C 575.028 689.264 575.522 696.883 568.940 700.271 C 566.463 701.546 563.681 701.965 559.000 701.771 L 552.500 701.500 552.821 694.500 C 553.075 688.946 553.562 687.139 555.181 685.750 C 557.794 683.509 563.513 683.510 567.999 685.752 "/></g>
<g fill="#318954FD">
<path d="M 380.000 645.135 C 377.525 645.638 369.516 646.661 362.202 647.407 C 354.888 648.153 348.626 649.040 348.287 649.379 C 347.542 650.124 347.534 648.063 348.504 703.000 C 349.286 747.356 348.523 789.442 346.954 788.472 C 345.699 787.696 346.886 802.158 348.209 803.751 C 349.138 804.871 351.666 805.007 361.144 804.450 C 367.623 804.068 377.329 804.137 382.712 804.603 L 392.500 805.449 386.500 806.056 L 380.500 806.664 388.000 806.753 C 392.125 806.802 394.942 806.616 394.259 806.341 C 393.318 805.961 393.379 805.478 394.509 804.348 C 395.558 803.299 396.000 803.224 396.000 804.095 C 396.000 804.776 396.289 805.044 396.643 804.691 C 396.996 804.337 396.810 803.475 396.229 802.774 C 395.586 801.998 395.135 794.664 395.075 784.000 C 395.021 774.375 394.696 762.611 394.353 757.857 C 393.657 748.213 394.314 744.000 396.513 744.000 C 398.240 744.000 404.211 751.850 403.436 753.104 C 403.146 753.573 403.942 755.287 405.204 756.912 C 407.355 759.681 407.437 759.707 406.500 757.327 C 405.229 754.097 418.385 772.229 424.041 781.500 C 426.389 785.350 428.420 789.459 428.554 790.631 C 428.688 791.803 429.631 793.935 430.649 795.369 L 432.500 797.976 431.000 794.384 C 430.000 791.990 431.050 793.078 434.145 797.646 L 438.791 804.500 459.895 804.620 L 481.000 804.739 481.020 764.620 C 481.032 742.554 481.248 719.550 481.501 713.500 C 481.754 707.450 482.486 690.454 483.127 675.730 C 483.769 661.007 483.966 648.633 483.566 648.233 C 483.166 647.832 471.850 647.481 458.419 647.452 L 434.000 647.398 434.021 652.949 C 434.032 656.002 434.488 669.075 435.033 682.000 C 436.055 706.209 435.803 711.000 433.506 711.000 C 431.797 711.000 425.715 701.185 426.369 699.481 C 426.640 698.774 426.556 697.889 426.181 697.514 C 425.806 697.140 425.444 697.321 425.375 697.917 C 425.226 699.207 424.754 698.108 424.551 696.000 C 424.472 695.175 423.899 694.601 423.279 694.725 C 421.049 695.169 406.925 672.741 408.465 671.202 C 408.851 670.816 408.618 670.500 407.948 670.500 C 406.733 670.500 400.190 660.679 395.530 651.861 C 391.210 643.685 389.904 643.119 380.000 645.135 "/></g>
<g fill="#D9D9D8FD">
<path d="M 236.903 644.182 C 236.348 645.218 234.084 652.239 231.871 659.783 C 229.659 667.327 225.220 682.050 222.007 692.500 C 218.794 702.950 215.727 713.075 215.193 715.000 C 214.120 718.858 197.328 773.794 193.337 786.500 C 188.472 801.985 187.763 805.163 188.916 806.316 C 190.425 807.825 190.269 809.000 188.559 809.000 C 186.228 809.000 185.630 811.061 187.443 812.846 C 189.006 814.386 189.222 814.366 190.561 812.559 C 191.353 811.491 192.000 810.076 192.000 809.413 C 192.000 808.500 197.992 808.261 216.750 808.425 C 230.363 808.545 242.272 808.265 243.215 807.805 C 244.158 807.344 245.434 805.284 246.050 803.227 C 248.324 795.638 248.431 795.591 263.730 795.543 L 277.436 795.500 278.643 800.894 C 279.306 803.861 280.445 806.667 281.175 807.129 C 282.749 808.127 281.177 808.078 312.402 808.103 C 333.195 808.120 337.552 807.877 338.801 806.628 C 340.365 805.064 340.174 804.261 330.452 771.500 C 329.147 767.100 326.451 757.425 324.462 750.000 C 315.616 716.971 304.298 684.094 291.760 655.007 L 286.500 642.803 262.205 642.551 C 239.290 642.312 237.854 642.405 236.903 644.182 M 255.771 644.192 C 265.313 645.132 269.865 645.135 276.241 644.206 C 282.735 643.260 284.687 643.270 285.630 644.256 C 287.307 646.009 306.810 696.568 312.342 713.500 C 313.779 717.900 318.994 735.900 323.931 753.500 C 328.868 771.100 334.229 789.873 335.845 795.218 C 337.995 802.330 338.477 805.180 337.641 805.849 C 336.230 806.980 282.491 806.819 281.333 805.681 C 280.875 805.230 280.041 802.530 279.480 799.681 L 278.459 794.500 264.874 794.223 C 249.240 793.904 247.900 794.435 245.077 802.076 L 243.443 806.500 216.971 806.500 L 190.500 806.500 190.181 804.257 C 189.930 802.490 199.735 768.286 204.014 756.000 C 205.399 752.022 222.531 695.281 232.245 662.500 C 235.015 653.150 237.724 644.938 238.264 644.250 C 239.481 642.699 240.578 642.696 255.771 644.192 "/></g>
<g fill="#318954FD">
<path d="M 239.094 648.085 C 238.018 649.855 236.165 654.948 234.978 659.402 C 232.555 668.485 228.952 680.728 223.469 698.500 C 221.433 705.100 217.794 717.215 215.382 725.423 C 212.970 733.630 209.016 746.680 206.596 754.423 C 195.187 790.927 191.892 802.275 192.351 803.472 C 192.742 804.490 198.143 804.733 217.611 804.607 L 242.374 804.446 243.551 801.566 C 244.349 799.615 244.908 799.140 245.285 800.093 C 245.760 801.293 245.854 801.291 245.921 800.079 C 245.964 799.297 246.788 797.722 247.750 796.579 C 249.498 794.502 249.498 794.502 247.250 796.405 C 246.013 797.453 245.000 797.823 245.000 797.228 C 245.000 796.632 246.186 795.212 247.635 794.073 C 250.022 792.195 251.617 792.000 264.600 792.000 C 277.744 792.000 279.015 792.160 279.965 793.934 C 280.534 794.998 281.000 796.777 281.000 797.887 C 281.000 798.997 281.546 801.105 282.214 802.570 L 283.428 805.234 297.108 804.529 C 304.632 804.142 315.448 804.202 321.144 804.662 L 331.500 805.500 324.000 806.070 C 316.722 806.623 316.811 806.643 327.000 806.741 C 332.775 806.797 336.910 806.606 336.189 806.317 C 335.147 805.900 335.194 805.443 336.419 804.089 C 337.809 802.553 337.791 801.803 336.230 796.443 C 334.714 791.234 334.499 790.932 334.492 794.000 C 334.485 797.483 334.478 797.478 333.208 793.000 C 332.506 790.525 331.478 787.424 330.923 786.110 C 330.369 784.795 328.624 778.720 327.047 772.610 C 323.508 758.905 315.756 731.562 311.988 719.500 C 309.539 711.658 306.864 703.892 300.503 686.157 C 299.647 683.768 298.111 680.168 297.090 678.157 C 295.189 674.412 289.000 657.253 289.000 655.729 C 289.000 655.263 289.507 655.195 290.126 655.578 C 290.947 656.085 290.966 655.762 290.197 654.387 C 289.616 653.349 288.823 652.647 288.435 652.826 C 288.046 653.005 286.749 651.430 285.552 649.326 C 283.984 646.569 282.834 645.605 281.438 645.875 C 278.380 646.468 257.282 646.238 248.776 645.519 L 241.051 644.867 239.094 648.085 M 271.585 723.200 C 272.363 724.686 273.000 728.193 273.000 730.996 C 273.000 737.694 270.026 741.000 264.000 741.000 C 260.990 741.000 259.261 740.352 257.455 738.545 C 255.167 736.258 253.986 733.255 255.819 734.388 C 256.270 734.667 256.415 733.456 256.142 731.697 C 255.659 728.584 255.627 728.566 254.923 731.000 C 254.308 733.123 254.184 732.911 254.100 729.588 C 253.988 725.223 257.613 718.085 261.226 715.554 C 263.288 714.110 263.626 714.213 266.796 717.258 C 268.652 719.041 270.807 721.715 271.585 723.200 "/></g>
<g fill="#D9D9D8FD">
<path d="M 931.505 693.995 C 930.243 695.389 930.000 700.042 930.000 722.836 L 930.000 750.015 935.877 761.257 C 941.827 772.638 952.925 791.071 955.719 794.213 C 959.676 798.661 951.032 803.286 939.559 802.858 C 928.232 802.436 927.190 804.111 931.564 815.705 C 934.652 823.889 938.575 836.282 939.491 840.749 C 940.271 844.547 943.305 847.000 947.223 847.000 C 948.770 847.000 950.007 847.554 950.015 848.250 C 950.027 849.193 950.236 849.175 950.870 848.176 C 951.489 847.200 956.521 846.676 970.065 846.176 L 988.420 845.500 994.133 837.500 C 1017.134 805.289 1040.642 763.728 1042.995 751.114 C 1044.314 744.042 1044.274 711.292 1042.936 703.000 C 1041.094 691.584 1042.694 692.223 1016.306 692.371 C 1003.763 692.442 992.873 692.904 992.107 693.397 C 990.983 694.122 990.820 696.949 991.261 708.079 C 992.135 730.170 989.747 750.000 986.212 750.000 C 985.722 750.000 984.691 748.763 983.920 747.250 C 982.848 745.147 982.479 738.811 982.349 720.322 C 982.250 706.086 981.761 695.395 981.160 694.322 C 980.221 692.644 978.284 692.493 956.575 692.416 C 935.805 692.342 932.831 692.529 931.505 693.995 M 979.991 694.495 C 980.894 695.053 981.018 699.597 980.493 712.868 C 979.541 736.880 981.598 751.000 986.047 751.000 C 990.768 751.000 993.585 733.545 992.614 710.315 C 992.147 699.131 992.291 694.938 993.160 694.401 C 994.626 693.495 1037.780 693.246 1039.218 694.135 C 1041.866 695.771 1043.767 728.543 1042.158 744.835 C 1041.235 754.193 1040.665 756.133 1036.137 765.335 C 1025.303 787.358 1010.258 812.408 994.789 834.180 C 987.236 844.811 985.626 845.771 977.416 844.540 C 974.997 844.177 966.686 844.402 958.947 845.039 C 942.103 846.427 942.096 846.424 939.512 835.708 C 938.556 831.744 936.009 823.842 933.852 818.148 C 931.695 812.455 930.184 806.994 930.496 806.013 C 930.976 804.499 932.547 804.170 940.898 803.835 C 949.788 803.478 951.084 803.173 954.367 800.669 C 956.365 799.145 958.000 797.487 958.000 796.984 C 958.000 796.481 955.610 792.341 952.688 787.785 C 945.692 776.874 937.844 763.029 934.002 754.817 L 930.906 748.201 931.203 721.563 C 931.417 702.395 931.832 694.720 932.685 694.194 C 934.226 693.243 978.420 693.524 979.991 694.495 "/></g>
<g fill="#D9D9D8FD">
<path d="M 797.250 690.522 C 796.013 691.397 794.993 692.650 794.985 693.307 C 794.941 696.689 793.421 696.938 787.460 694.536 C 778.294 690.843 769.565 689.632 761.915 690.993 C 744.637 694.067 734.569 703.479 726.857 723.770 C 723.562 732.438 723.538 732.624 723.519 750.000 C 723.502 765.764 723.734 768.194 725.856 774.500 C 733.547 797.350 751.456 812.325 769.171 810.718 C 773.688 810.309 776.896 809.139 783.025 805.667 C 791.572 800.824 791.409 800.802 790.941 806.750 C 790.909 807.163 791.921 807.793 793.191 808.150 C 796.259 809.014 827.288 809.034 832.987 808.176 C 839.908 807.133 840.022 806.513 838.324 779.000 C 836.654 751.938 837.024 732.664 839.546 715.249 C 840.874 706.080 841.049 702.402 840.239 700.625 C 839.284 698.530 837.065 697.755 821.329 694.020 C 811.523 691.693 802.600 689.596 801.500 689.360 C 800.400 689.124 798.488 689.647 797.250 690.522 M 786.783 738.561 C 791.150 741.619 793.336 749.453 791.277 754.668 C 790.825 755.814 790.533 754.627 790.499 751.500 C 790.469 748.750 790.344 748.127 790.222 750.115 C 789.917 755.086 786.681 758.961 782.677 759.150 C 779.725 759.289 779.691 759.329 782.201 759.711 C 783.686 759.938 785.936 759.621 787.201 759.006 C 789.399 757.939 789.415 757.958 787.559 759.445 C 783.281 762.872 774.035 759.806 771.888 754.250 C 771.304 752.737 771.046 749.490 771.315 747.032 C 772.198 738.961 780.704 734.302 786.783 738.561 M 786.967 742.461 C 788.722 744.575 789.343 751.051 788.100 754.276 C 786.723 757.847 784.758 758.544 780.044 757.131 C 775.035 755.631 773.187 751.657 774.877 746.018 C 775.521 743.867 776.809 741.937 777.769 741.686 C 781.503 740.707 785.813 741.070 786.967 742.461 "/></g>
<g fill="#D9D9D8FD">
<path d="M 85.307 643.812 C 81.331 644.378 80.922 648.396 81.982 676.511 C 83.201 708.874 83.217 752.699 82.019 781.307 C 81.517 793.301 81.360 803.776 81.671 804.585 C 83.069 808.229 85.747 808.500 120.500 808.512 C 142.668 808.521 159.467 809.025 168.774 809.961 C 187.292 811.824 186.337 812.669 187.963 793.000 C 188.623 785.025 189.407 772.864 189.706 765.976 C 190.426 749.375 191.075 749.906 173.671 752.858 C 166.427 754.086 155.602 755.367 149.614 755.704 L 138.729 756.317 139.371 716.408 C 139.724 694.459 140.288 669.736 140.624 661.470 C 141.126 649.116 140.981 646.229 139.806 645.254 C 138.807 644.425 130.714 643.982 112.938 643.784 C 98.947 643.628 86.513 643.640 85.307 643.812 "/></g>
<g fill="#318954FD">
<path d="M 967.589 695.145 C 968.114 695.994 964.018 696.159 951.707 695.786 C 940.714 695.452 934.760 695.640 934.059 696.341 C 933.370 697.030 933.000 706.208 933.000 722.617 C 933.000 745.776 933.166 748.223 935.040 752.593 C 936.161 755.210 936.842 757.970 936.551 758.727 C 936.261 759.484 936.421 759.858 936.909 759.556 C 937.631 759.110 951.000 781.006 951.000 782.635 C 951.000 782.901 950.480 782.797 949.845 782.405 C 949.124 781.959 948.963 782.131 949.415 782.862 C 949.813 783.506 950.493 783.813 950.926 783.546 C 951.359 783.278 953.879 786.199 956.525 790.036 L 961.336 797.014 958.918 799.604 C 954.312 804.539 949.386 806.268 940.288 806.144 C 930.696 806.013 930.718 805.980 934.379 814.780 C 937.651 822.644 938.437 825.388 937.200 824.624 C 936.583 824.243 936.400 824.814 936.732 826.083 C 937.155 827.701 937.485 827.869 938.199 826.835 C 938.796 825.970 938.902 826.733 938.500 829.000 C 938.012 831.747 938.124 832.177 939.020 831.000 C 939.930 829.805 940.035 830.076 939.541 832.334 C 939.090 834.391 939.248 834.965 940.116 834.428 C 940.998 833.883 941.137 834.564 940.646 837.022 C 940.279 838.855 940.269 840.065 940.622 839.711 C 940.976 839.357 942.164 840.210 943.261 841.605 C 945.218 844.092 945.457 844.132 955.378 843.629 C 961.585 843.315 964.146 843.430 962.000 843.927 L 958.500 844.737 962.250 844.868 C 964.313 844.941 966.000 844.550 966.000 844.001 C 966.000 843.451 967.463 843.055 969.250 843.122 C 971.038 843.188 975.560 842.896 979.300 842.472 C 985.545 841.764 986.369 841.387 989.396 837.851 C 992.689 834.003 994.221 833.032 993.750 835.092 C 993.613 835.693 994.366 834.905 995.425 833.342 C 996.949 831.091 997.001 830.785 995.675 831.872 C 994.754 832.627 994.000 832.795 994.000 832.245 C 994.000 830.944 996.521 828.855 997.233 829.566 C 997.535 829.868 998.768 828.627 999.974 826.808 L 1002.165 823.500 999.588 826.500 C 995.119 831.701 996.762 828.235 1003.666 817.899 C 1007.561 812.067 1010.620 808.386 1011.027 809.043 C 1011.492 809.796 1011.929 809.628 1012.349 808.532 C 1012.756 807.472 1012.583 807.140 1011.859 807.587 C 1011.186 808.003 1010.925 807.725 1011.204 806.889 C 1011.458 806.125 1012.192 805.444 1012.833 805.375 C 1013.475 805.306 1014.113 805.140 1014.250 805.007 C 1014.388 804.873 1014.163 804.816 1013.750 804.882 C 1012.450 805.087 1012.923 803.390 1015.427 798.876 C 1016.761 796.469 1019.349 791.796 1021.177 788.490 C 1029.514 773.414 1031.552 770.023 1032.285 770.012 C 1032.717 770.005 1032.580 771.013 1031.980 772.250 C 1030.963 774.349 1030.989 774.376 1032.376 772.653 C 1033.194 771.637 1033.645 770.237 1033.378 769.543 C 1033.112 768.849 1034.493 764.418 1036.447 759.697 C 1038.401 754.976 1040.000 749.738 1040.000 748.057 C 1040.000 746.375 1040.358 745.000 1040.796 745.000 C 1042.352 745.000 1039.759 698.359 1038.111 696.711 C 1037.330 695.930 1001.936 695.299 994.832 695.940 C 994.464 695.973 994.217 705.113 994.284 716.250 C 994.415 738.410 993.336 746.335 989.593 750.687 C 987.837 752.728 986.777 753.161 984.767 752.656 C 980.753 751.649 978.984 745.025 978.582 729.500 C 978.324 719.543 978.407 718.373 978.936 724.500 L 979.627 732.500 979.814 723.833 C 979.946 717.689 979.636 715.020 978.750 714.662 C 978.063 714.385 977.950 714.123 978.500 714.081 C 979.128 714.033 979.314 710.563 979.000 704.752 L 978.500 695.500 973.750 695.662 C 971.138 695.751 969.000 695.413 969.000 694.912 C 969.000 694.410 968.523 694.000 967.941 694.000 C 967.359 694.000 967.200 694.515 967.589 695.145 "/></g>
<g fill="#318954FD">
<path d="M 798.119 691.703 C 798.859 692.153 796.724 698.684 795.418 699.964 C 794.871 700.500 792.477 699.904 789.500 698.490 C 786.750 697.184 783.825 696.082 783.000 696.042 C 781.795 695.984 781.762 695.803 782.833 695.124 C 783.749 694.543 782.751 693.923 779.640 693.140 C 774.772 691.914 770.858 691.727 775.000 692.918 C 776.627 693.386 773.939 693.841 767.302 694.221 C 759.515 694.667 755.851 695.379 751.800 697.234 C 740.269 702.513 731.900 715.056 727.811 733.184 C 726.104 740.753 725.369 742.676 724.868 740.886 C 724.500 739.574 724.214 743.225 724.231 749.000 C 724.253 756.070 724.504 758.357 725.000 756.000 L 725.737 752.500 725.875 756.500 C 726.190 765.578 731.539 782.735 736.014 789.019 C 738.468 792.465 738.569 793.691 736.250 791.872 C 734.659 790.624 734.626 790.661 735.893 792.274 C 736.658 793.250 737.517 793.816 737.800 793.533 C 738.451 792.883 741.000 794.946 741.000 796.122 C 741.000 796.605 740.540 796.887 739.978 796.750 C 739.415 796.613 740.199 797.625 741.720 799.000 C 744.013 801.073 744.161 801.115 742.588 799.250 C 740.057 796.250 741.523 796.399 745.672 799.564 C 748.695 801.869 754.025 804.517 759.472 806.419 C 760.959 806.938 761.123 807.306 760.139 807.914 C 759.320 808.420 760.770 808.977 764.034 809.410 C 766.894 809.789 769.481 809.852 769.783 809.550 C 770.086 809.247 769.246 808.961 767.917 808.914 L 765.500 808.828 768.000 808.078 C 772.996 806.580 777.572 805.955 776.000 806.986 C 773.133 808.865 776.251 807.987 780.073 805.839 C 782.188 804.650 783.705 803.331 783.443 802.908 C 783.181 802.485 783.425 801.856 783.984 801.510 C 784.543 801.165 785.000 801.384 785.000 801.998 C 785.000 802.686 785.851 802.518 787.223 801.557 C 790.709 799.114 793.162 799.507 792.438 802.391 C 792.108 803.706 792.319 805.079 792.908 805.443 C 793.595 805.867 793.735 805.459 793.301 804.302 C 792.687 802.664 792.794 802.637 794.470 804.000 C 797.010 806.066 832.724 805.623 834.898 803.499 C 836.087 802.337 836.106 799.101 835.027 781.817 C 833.376 755.381 833.522 734.164 835.450 720.576 C 836.303 714.568 837.000 707.758 837.000 705.443 L 837.000 701.234 823.250 698.010 C 815.688 696.236 807.475 694.202 805.000 693.490 C 802.525 692.777 799.825 691.999 799.000 691.761 C 798.175 691.523 797.778 691.497 798.119 691.703 M 786.783 738.561 C 791.150 741.619 793.336 749.453 791.277 754.668 C 790.825 755.814 790.533 754.627 790.499 751.500 C 790.469 748.750 790.344 748.127 790.222 750.115 C 789.917 755.086 786.681 758.961 782.677 759.150 C 779.725 759.289 779.691 759.329 782.201 759.711 C 783.686 759.938 785.936 759.621 787.201 759.006 C 789.399 757.939 789.415 757.958 787.559 759.445 C 783.281 762.872 774.035 759.806 771.888 754.250 C 771.304 752.737 771.046 749.490 771.315 747.032 C 772.198 738.961 780.704 734.302 786.783 738.561 M 786.967 742.461 C 788.722 744.575 789.343 751.051 788.100 754.276 C 786.723 757.847 784.758 758.544 780.044 757.131 C 775.035 755.631 773.187 751.657 774.877 746.018 C 775.521 743.867 776.809 741.937 777.769 741.686 C 781.503 740.707 785.813 741.070 786.967 742.461 "/></g>
<g fill="#318954FD">
<path d="M 85.533 682.965 C 86.441 723.563 86.242 770.460 85.080 789.500 C 84.524 798.598 84.618 802.921 85.392 803.902 C 86.312 805.069 90.607 805.195 110.999 804.654 C 124.474 804.296 140.450 804.428 146.500 804.947 C 152.550 805.467 163.208 806.200 170.185 806.577 L 182.871 807.263 183.657 800.882 C 184.428 794.619 184.455 794.574 185.080 798.500 C 185.702 802.413 185.721 802.381 185.957 797.000 C 186.493 784.760 186.495 754.000 185.959 754.000 C 185.644 754.000 180.461 754.922 174.443 756.048 C 168.424 757.174 157.696 758.370 150.602 758.705 C 138.803 759.263 137.588 759.158 136.352 757.466 C 134.514 754.953 134.567 717.181 136.464 678.029 C 137.249 661.820 137.660 648.327 137.378 648.045 C 137.096 647.762 125.136 647.509 110.801 647.481 L 84.738 647.430 85.533 682.965 "/></g>
<g fill="#D9D9D8FD">
<path d="M 880.000 692.531 C 874.225 693.829 865.503 695.350 860.618 695.910 C 854.621 696.598 851.097 697.508 849.766 698.712 C 847.616 700.657 847.588 699.811 850.437 718.500 C 851.596 726.103 851.966 737.547 851.981 766.250 C 851.999 802.653 852.071 804.071 854.000 806.000 C 855.481 807.481 857.363 808.008 861.250 808.033 C 864.138 808.050 873.125 808.327 881.222 808.648 C 898.136 809.317 900.225 808.997 901.822 805.492 C 902.883 803.162 902.678 774.216 901.520 763.033 C 900.854 756.599 901.839 756.000 913.083 756.000 C 922.522 756.000 923.230 755.854 925.451 753.459 C 927.149 751.627 927.976 751.278 928.414 752.209 C 928.748 752.919 928.689 752.375 928.282 751.000 C 927.874 749.625 927.502 737.025 927.455 723.000 C 927.407 708.975 927.031 696.489 926.618 695.252 C 925.642 692.332 922.340 691.569 916.884 693.004 C 912.421 694.178 902.838 699.059 899.852 701.679 C 898.356 702.992 898.141 702.659 897.507 698.052 C 897.025 694.545 896.153 692.520 894.682 691.490 C 892.110 689.689 892.896 689.633 880.000 692.531 M 894.429 692.571 C 895.349 693.492 896.006 695.874 896.015 698.321 C 896.040 704.944 896.932 705.409 902.299 701.593 C 909.316 696.603 916.420 693.840 921.312 694.196 L 925.500 694.500 925.219 722.500 C 925.064 737.900 924.713 751.234 924.439 752.131 C 923.807 754.200 919.782 755.000 909.997 755.000 C 904.447 755.000 901.903 755.412 901.042 756.449 C 900.134 757.543 900.017 763.550 900.562 780.925 C 901.126 798.885 901.007 804.287 900.020 805.476 C 898.959 806.754 895.323 807.000 877.500 807.000 C 858.937 807.000 856.071 806.790 854.872 805.344 C 853.764 804.007 853.491 796.362 853.456 765.594 C 853.412 728.123 852.980 721.509 849.452 704.414 C 848.525 699.922 850.671 698.336 858.779 697.522 C 862.544 697.144 871.446 695.562 878.562 694.007 C 885.678 692.452 891.805 691.139 892.179 691.090 C 892.552 691.040 893.564 691.707 894.429 692.571 "/></g>
<g fill="#318954FD">
<path d="M 671.000 696.056 C 666.325 697.075 661.375 697.884 660.000 697.855 L 657.500 697.801 660.000 696.914 C 662.137 696.156 662.010 696.098 659.125 696.514 C 657.269 696.781 654.794 697.032 653.625 697.070 C 651.592 697.138 651.585 697.174 653.464 697.908 C 654.869 698.458 653.763 698.848 649.571 699.280 C 642.792 699.980 642.245 700.367 641.435 705.031 C 641.048 707.256 641.160 708.038 641.748 707.212 C 642.385 706.317 643.023 707.538 643.840 711.212 C 646.218 721.911 647.062 738.272 646.879 770.096 C 646.776 788.024 647.012 803.211 647.405 803.846 C 647.907 804.658 654.296 805.000 668.992 805.000 C 688.009 805.000 689.911 804.844 690.377 803.250 C 690.659 802.288 691.076 793.400 691.303 783.500 C 691.531 773.600 691.443 769.100 691.109 773.500 L 690.500 781.500 689.659 770.824 C 689.092 763.630 689.164 759.553 689.878 758.324 C 690.881 756.599 690.942 756.609 690.984 758.500 C 691.024 760.253 691.185 760.191 692.291 758.000 C 693.484 755.634 694.112 755.470 704.026 754.946 L 714.500 754.391 704.450 754.196 C 697.728 754.065 694.003 754.397 693.200 755.200 C 692.417 755.983 692.000 756.025 692.000 755.321 C 692.000 753.463 697.656 751.798 703.190 752.028 C 714.241 752.486 714.568 752.386 715.842 748.134 C 716.539 745.806 716.924 738.348 716.809 729.384 C 716.628 715.313 716.581 714.991 715.955 723.500 C 715.456 730.280 715.318 728.060 715.396 714.500 L 715.500 696.500 711.000 696.698 C 706.059 696.916 699.500 697.665 699.500 698.011 C 699.500 698.132 700.114 698.291 700.864 698.365 C 701.614 698.439 699.781 700.188 696.791 702.250 C 691.350 706.002 689.896 706.656 690.118 705.250 C 690.184 704.838 690.127 704.613 689.993 704.750 C 689.860 704.888 689.694 705.525 689.625 706.167 C 689.556 706.808 688.978 707.507 688.341 707.720 C 687.195 708.102 686.713 706.516 685.466 698.250 C 684.707 693.222 684.293 693.159 671.000 696.056 "/></g>
<g fill="#318954FD">
<path d="M 882.500 695.190 C 877.550 696.278 868.570 697.918 862.544 698.834 C 852.340 700.386 851.541 700.671 850.894 703.000 L 850.199 705.500 850.100 703.083 C 850.045 701.754 849.760 700.907 849.467 701.200 C 849.174 701.493 849.246 703.689 849.629 706.080 C 850.151 709.343 850.494 709.942 851.007 708.480 C 851.440 707.247 852.388 710.741 853.595 718.017 C 855.225 727.843 855.500 734.795 855.500 766.198 C 855.500 790.957 855.849 803.246 856.571 803.969 C 857.283 804.682 864.507 804.951 878.071 804.771 L 898.500 804.500 898.191 780.933 C 897.805 751.447 897.358 752.456 910.657 752.812 C 924.260 753.176 923.326 755.330 923.421 723.389 L 923.500 696.500 919.500 696.593 C 915.300 696.692 908.143 697.708 909.000 698.085 C 909.275 698.206 908.941 698.353 908.259 698.413 C 907.576 698.472 907.047 698.955 907.084 699.486 C 907.120 700.016 906.604 700.632 905.936 700.855 C 905.189 701.104 905.015 700.785 905.484 700.026 C 905.903 699.348 905.024 699.627 903.531 700.646 C 901.277 702.185 901.176 702.415 902.939 702.000 C 904.418 701.652 903.814 702.521 900.946 704.865 C 898.321 707.012 896.483 707.883 895.872 707.272 C 895.344 706.744 894.595 703.467 894.207 699.988 C 893.818 696.509 893.050 693.561 892.500 693.437 C 891.950 693.313 887.450 694.101 882.500 695.190 "/></g>
<g fill="#FCA855FD">
<path d="M 429.679 493.655 C 428.728 494.606 428.825 571.774 429.778 572.363 C 430.206 572.627 437.593 566.125 446.194 557.914 C 461.998 542.825 464.958 540.905 469.667 542.682 C 470.859 543.132 478.806 550.138 487.327 558.250 C 495.849 566.363 503.091 573.000 503.422 573.000 C 503.752 573.000 503.905 555.113 503.761 533.250 L 503.500 493.500 466.929 493.238 C 446.815 493.094 430.052 493.281 429.679 493.655 "/></g>
<g fill="#FDCD35FD">
<path d="M 431.024 532.552 L 431.090 570.104 446.450 555.595 C 454.898 547.615 462.986 540.791 464.424 540.430 C 468.920 539.301 472.583 541.826 487.558 556.376 L 502.094 570.500 502.025 532.750 L 501.955 495.000 466.457 495.000 L 430.958 495.000 431.024 532.552 "/></g>
<g fill="#FCA855FD">
<path d="M 374.000 644.535 C 369.875 645.241 362.570 646.142 357.766 646.537 C 352.963 646.932 348.285 647.802 347.371 648.471 C 345.835 649.594 345.799 652.820 346.893 691.093 C 347.633 716.992 347.781 742.929 347.288 760.347 C 346.855 775.662 346.788 788.371 347.140 788.588 C 348.540 789.451 349.247 745.109 348.504 703.000 C 347.534 648.049 347.542 650.125 348.290 649.377 C 348.630 649.037 354.667 648.183 361.704 647.481 C 368.742 646.778 377.380 645.675 380.899 645.031 C 389.761 643.407 391.163 643.979 394.861 650.732 C 396.599 653.904 400.022 659.650 402.469 663.500 C 404.916 667.350 408.734 673.793 410.955 677.819 C 413.175 681.844 417.468 688.429 420.496 692.451 C 423.523 696.474 426.000 700.036 426.000 700.367 C 426.000 702.010 432.346 711.000 433.506 711.000 C 435.803 711.000 436.055 706.209 435.033 682.000 C 434.488 669.075 434.032 656.002 434.021 652.949 L 434.000 647.398 458.419 647.452 C 471.850 647.481 483.166 647.832 483.566 648.233 C 483.966 648.633 483.769 661.007 483.127 675.730 C 482.486 690.454 481.754 707.450 481.501 713.500 C 481.248 719.550 481.032 742.549 481.020 764.608 L 481.000 804.716 459.922 804.644 L 438.844 804.573 432.172 794.212 C 417.993 772.193 410.045 760.403 407.762 758.000 C 406.456 756.625 411.487 764.855 418.943 776.289 C 426.400 787.723 433.850 799.159 435.500 801.704 L 438.500 806.330 459.898 806.234 C 474.261 806.169 481.520 805.776 481.976 805.040 C 482.349 804.436 482.736 784.042 482.836 759.721 C 482.936 735.399 483.351 706.500 483.759 695.500 C 484.166 684.500 484.500 668.975 484.500 661.000 L 484.500 646.500 458.892 646.233 L 433.283 645.967 432.762 651.233 C 432.475 654.130 432.605 660.550 433.049 665.500 C 433.494 670.450 433.890 682.093 433.929 691.372 C 433.987 705.213 433.764 708.049 432.684 707.153 C 430.054 704.970 412.659 678.055 401.131 658.331 C 397.220 651.638 393.308 645.451 392.438 644.581 C 390.554 642.697 384.829 642.682 374.000 644.535 "/></g>
<g fill="#FCA855FD">
<path d="M 84.717 646.042 C 83.048 647.067 82.984 648.749 83.717 672.318 C 84.659 702.605 84.652 771.237 83.706 790.000 C 83.321 797.615 83.417 804.118 83.924 804.917 C 84.673 806.095 91.130 806.355 122.162 806.456 C 146.818 806.536 163.282 807.040 170.636 807.940 C 176.761 808.689 182.499 809.023 183.386 808.682 C 184.671 808.189 184.974 806.678 184.873 801.281 L 184.745 794.500 183.768 800.879 L 182.791 807.259 170.145 806.575 C 163.190 806.199 152.550 805.467 146.500 804.947 C 140.450 804.428 124.474 804.296 110.999 804.654 C 90.607 805.195 86.312 805.069 85.392 803.902 C 84.618 802.921 84.524 798.598 85.080 789.500 C 86.242 770.460 86.441 723.563 85.533 682.965 L 84.738 647.430 110.801 647.481 C 125.136 647.509 137.096 647.762 137.378 648.045 C 137.660 648.327 137.249 661.820 136.464 678.029 C 134.567 717.181 134.514 754.953 136.352 757.466 C 137.588 759.158 138.803 759.263 150.602 758.705 C 157.696 758.370 168.424 757.174 174.443 756.048 C 180.461 754.922 185.736 754.000 186.163 754.000 C 186.591 754.000 186.758 760.638 186.534 768.750 C 186.246 779.184 186.370 781.745 186.955 777.500 C 188.253 768.092 188.190 753.230 186.851 752.784 C 186.218 752.573 179.581 753.478 172.101 754.795 C 164.460 756.140 153.899 757.257 148.000 757.345 L 137.500 757.500 137.534 718.500 C 137.552 697.050 137.960 671.963 138.441 662.750 L 139.314 646.000 117.297 646.000 C 105.187 646.000 93.304 645.763 90.890 645.473 C 88.471 645.183 85.699 645.439 84.717 646.042 "/></g>
<g fill="#FCA855FD">
<path d="M 879.017 694.541 C 872.701 695.889 864.601 697.283 861.017 697.639 C 851.739 698.560 849.980 699.380 850.100 702.725 L 850.199 705.500 850.894 703.000 C 851.541 700.671 852.337 700.387 862.544 698.841 C 868.570 697.928 877.766 696.277 882.979 695.173 C 888.192 694.069 892.741 693.340 893.087 693.554 C 893.434 693.768 893.968 696.708 894.274 700.087 C 894.581 703.466 895.258 706.658 895.779 707.179 C 896.376 707.776 899.184 706.267 903.367 703.101 C 910.139 697.975 916.044 695.638 920.826 696.191 L 923.500 696.500 923.421 723.389 C 923.326 755.330 924.260 753.176 910.657 752.812 C 897.358 752.456 897.805 751.447 898.191 780.933 L 898.500 804.500 878.071 804.771 C 864.507 804.951 857.283 804.682 856.571 803.969 C 855.849 803.246 855.500 790.957 855.500 766.198 C 855.500 734.992 855.219 727.810 853.625 718.209 C 852.593 711.999 851.566 707.101 851.343 707.324 C 851.119 707.548 851.626 712.989 852.468 719.416 C 853.601 728.062 854.000 740.555 854.000 767.429 C 854.000 795.295 854.291 803.986 855.250 804.745 C 855.938 805.290 866.030 805.993 877.677 806.308 C 894.867 806.773 899.067 806.624 899.986 805.517 C 900.800 804.536 900.890 799.710 900.309 788.327 C 898.517 753.271 898.247 754.000 913.033 754.000 C 919.878 754.000 923.080 753.608 923.853 752.677 C 924.580 751.802 924.926 744.249 924.875 730.372 C 924.833 718.833 925.112 706.469 925.494 702.897 C 926.075 697.477 925.913 696.172 924.514 695.012 C 921.798 692.758 913.252 695.113 905.291 700.310 C 901.556 702.748 898.050 704.820 897.500 704.914 C 896.950 705.008 896.050 702.254 895.500 698.793 C 894.284 691.144 894.581 691.220 879.017 694.541 "/></g>
<g fill="#D9D9D8FD">
<path d="M 681.395 691.170 C 680.897 691.975 681.235 692.124 682.481 691.646 C 685.740 690.395 688.000 693.674 688.000 699.655 C 688.000 702.595 688.318 705.000 688.707 705.000 C 689.095 705.000 691.908 703.275 694.957 701.166 C 704.239 694.746 714.235 692.029 716.719 695.250 C 717.895 696.776 717.143 751.148 715.918 753.137 C 715.328 754.096 711.882 754.648 704.299 755.000 C 693.995 755.478 693.468 755.610 692.364 758.000 C 691.509 759.853 691.461 765.921 692.179 781.441 C 692.849 795.941 692.824 803.091 692.095 804.691 C 691.044 806.998 691.025 807.000 669.713 807.000 C 654.176 807.000 647.944 806.660 646.768 805.750 C 645.344 804.647 645.096 799.670 644.659 763.500 C 644.244 729.195 643.853 720.743 642.260 711.743 C 639.990 698.911 640.157 698.599 649.786 697.645 C 659.914 696.643 680.635 692.301 679.709 691.376 C 679.466 691.133 675.045 691.836 669.884 692.937 C 664.723 694.039 656.450 695.416 651.500 695.998 C 641.692 697.151 638.338 699.228 639.408 703.488 C 642.638 716.359 643.440 727.822 643.573 763.000 C 643.746 808.771 643.573 805.701 646.063 807.034 C 647.265 807.677 656.867 808.380 669.070 808.717 C 688.692 809.261 690.148 809.177 692.128 807.399 C 694.206 805.532 694.230 805.104 693.532 781.946 C 692.912 761.343 693.017 758.231 694.369 757.109 C 695.487 756.181 699.110 755.919 707.448 756.163 C 715.758 756.406 719.109 756.165 719.440 755.301 C 719.730 754.542 719.306 754.329 718.285 754.721 C 717.102 755.175 716.898 754.974 717.518 753.970 C 718.777 751.934 719.171 697.187 717.943 694.894 C 716.173 691.587 708.419 692.339 700.333 696.603 C 696.575 698.584 692.790 700.834 691.921 701.603 C 689.446 703.793 689.000 703.320 689.000 698.500 C 689.000 695.333 688.407 693.407 687.000 692.000 C 684.755 689.755 682.478 689.418 681.395 691.170 "/></g>
<g fill="#FCA855FD">
<path d="M 503.109 646.083 C 500.737 647.032 500.723 647.124 501.354 657.770 C 503.817 699.288 504.235 723.641 503.037 756.000 C 502.356 774.425 501.956 793.100 502.149 797.500 L 502.500 805.500 527.262 805.635 C 543.346 805.723 552.247 805.409 552.662 804.739 C 553.096 804.036 545.354 803.833 528.400 804.103 L 503.500 804.500 503.675 791.500 C 504.261 747.975 504.062 670.721 503.339 660.770 C 502.871 654.318 502.640 648.580 502.827 648.020 C 503.050 647.351 516.126 647.001 540.833 647.004 C 576.956 647.007 584.510 647.465 598.000 650.465 C 599.706 650.845 599.389 650.505 597.000 649.394 C 589.311 645.820 579.696 645.069 542.000 645.098 C 521.179 645.115 504.473 645.538 503.109 646.083 "/></g>
<g fill="#FCA855FD">
<path d="M 239.772 643.635 C 237.982 644.156 237.813 644.645 230.048 671.725 C 227.805 679.549 225.516 687.142 224.963 688.598 C 224.409 690.053 222.416 696.477 220.534 702.872 C 218.652 709.267 213.312 727.100 208.668 742.500 C 204.024 757.900 198.344 776.800 196.045 784.500 C 193.746 792.200 191.603 799.175 191.282 800.000 C 190.172 802.857 190.032 804.902 190.909 805.444 C 191.393 805.743 203.153 806.063 217.041 806.154 C 240.571 806.309 242.385 806.194 243.646 804.469 C 244.391 803.451 244.980 801.691 244.955 800.559 C 244.919 798.928 244.646 799.118 243.642 801.473 L 242.374 804.446 217.611 804.607 C 198.143 804.733 192.742 804.490 192.351 803.472 C 191.892 802.275 195.187 790.927 206.596 754.423 C 209.016 746.680 212.970 733.630 215.382 725.423 C 217.794 717.215 221.436 705.100 223.475 698.500 C 225.515 691.900 228.745 681.100 230.653 674.500 C 232.560 667.900 234.991 659.517 236.053 655.870 C 239.262 644.857 239.211 644.885 254.500 645.863 C 266.181 646.611 275.974 646.582 281.450 645.784 C 282.852 645.580 284.116 646.751 285.950 649.955 C 287.797 653.182 288.427 653.763 288.237 652.063 C 288.092 650.773 287.413 648.548 286.728 647.119 L 285.483 644.520 267.991 644.485 C 258.371 644.466 248.475 644.153 246.000 643.791 C 243.525 643.428 240.722 643.358 239.772 643.635 "/></g>
<g fill="#D9D9D8FD">
<path d="M 663.327 473.708 C 662.132 473.934 660.005 475.268 658.601 476.672 C 648.973 486.300 662.476 501.202 672.889 492.440 C 681.427 485.255 674.458 471.603 663.327 473.708 M 672.314 477.415 C 673.747 478.743 675.213 481.002 675.573 482.434 C 676.967 487.991 671.830 494.000 665.685 494.000 C 662.654 494.000 658.152 490.529 656.895 487.225 C 655.666 483.991 657.398 478.535 660.299 476.503 C 663.630 474.170 669.274 474.598 672.314 477.415 "/></g>
<g fill="#FCA855FD">
<path d="M 798.329 691.775 C 797.685 692.185 796.848 693.757 796.469 695.269 C 795.533 698.997 794.458 699.444 790.700 697.667 C 788.940 696.835 786.150 695.892 784.500 695.571 C 782.850 695.250 782.175 695.282 783.000 695.641 C 783.825 696.000 786.747 697.316 789.494 698.566 C 794.727 700.949 797.000 700.495 797.000 697.069 C 797.000 696.141 797.563 694.612 798.251 693.671 C 799.390 692.113 799.951 692.087 804.501 693.373 C 807.251 694.150 815.688 696.236 823.250 698.010 L 837.000 701.234 837.000 705.443 C 837.000 707.758 836.303 714.568 835.450 720.576 C 833.522 734.164 833.376 755.381 835.027 781.817 C 836.106 799.101 836.087 802.337 834.898 803.499 C 832.832 805.517 797.011 806.077 794.657 804.128 C 792.881 802.656 792.471 803.617 793.908 805.885 C 794.628 807.022 798.396 807.167 814.971 806.692 C 827.121 806.344 835.677 805.683 836.462 805.032 C 837.725 803.983 837.733 790.667 836.476 781.000 C 836.226 779.075 835.745 768.500 835.408 757.500 C 834.923 741.709 835.153 734.659 836.501 724.000 C 839.588 699.572 839.579 700.176 836.870 699.558 C 835.566 699.261 827.022 697.214 817.881 695.009 C 799.821 690.652 800.038 690.688 798.329 691.775 "/></g>
<g fill="#D9D9D8FD">
<path d="M 553.415 745.362 C 553.127 746.111 553.029 749.374 553.196 752.612 L 553.500 758.500 561.500 758.755 C 571.308 759.069 574.369 757.800 574.813 753.237 C 575.389 747.304 569.519 744.040 558.219 744.011 C 555.520 744.004 553.744 744.503 553.415 745.362 "/></g>
<g fill="#D9D9D8FD">
<path d="M 775.923 741.923 C 769.814 748.032 773.727 759.000 782.016 759.000 C 787.134 759.000 790.000 755.514 790.000 749.288 C 790.000 745.712 789.430 744.276 787.077 741.923 C 785.315 740.161 783.100 739.000 781.500 739.000 C 779.900 739.000 777.685 740.161 775.923 741.923 "/></g>
<g fill="#000000FD">
<path d="M 659.923 477.923 C 655.194 482.652 656.148 489.474 661.959 492.479 C 668.196 495.704 675.000 491.257 675.000 483.954 C 675.000 480.965 674.359 479.638 671.923 477.589 C 667.756 474.082 663.650 474.197 659.923 477.923 "/></g>
<g fill="#D9D9D8FD">
<path d="M 259.048 721.430 C 255.221 726.993 254.918 732.678 258.250 736.407 C 261.754 740.328 265.371 740.720 268.568 737.523 C 270.947 735.144 271.188 734.276 270.792 729.500 C 270.325 723.871 266.315 717.000 263.497 717.000 C 262.727 717.000 260.724 718.994 259.048 721.430 "/></g>
<g fill="#FCA855FD">
<path d="M 992.776 695.171 C 992.617 695.649 992.820 701.318 993.227 707.770 C 994.489 727.755 991.496 749.828 987.307 751.436 C 983.179 753.020 980.437 745.061 979.060 727.494 L 978.119 715.500 978.519 729.000 C 978.994 745.047 980.737 751.645 984.767 752.656 C 986.777 753.161 987.837 752.728 989.593 750.687 C 993.336 746.335 994.415 738.410 994.284 716.250 C 994.217 705.113 994.464 695.973 994.832 695.940 C 999.741 695.497 1036.959 695.857 1037.764 696.354 C 1039.192 697.237 1039.910 703.636 1040.978 725.000 L 1041.853 742.500 1041.524 721.000 C 1041.343 709.175 1040.735 698.323 1040.173 696.884 L 1039.151 694.268 1016.108 694.286 C 1003.435 694.295 992.935 694.694 992.776 695.171 "/></g>
<g fill="#FCA855FD">
<path d="M 932.652 694.681 C 932.293 695.040 932.000 707.434 932.000 722.224 L 932.000 749.114 936.474 758.307 C 941.731 769.106 945.796 776.412 950.770 784.000 C 960.205 798.391 959.490 796.801 957.512 798.987 C 956.535 800.066 953.725 801.923 951.267 803.113 C 947.427 804.972 945.750 805.188 939.364 804.648 C 933.018 804.112 931.837 804.260 931.299 805.664 C 930.541 807.638 932.085 813.724 935.021 820.333 C 938.424 827.996 938.464 824.992 935.072 816.520 C 933.382 812.301 932.000 808.215 932.000 807.440 C 932.000 806.332 933.772 806.055 940.288 806.144 C 949.393 806.268 954.312 804.539 958.930 799.592 L 961.359 796.989 956.302 789.744 C 949.839 780.486 938.103 760.094 935.222 753.117 C 933.127 748.042 933.000 746.291 933.000 722.567 C 933.000 706.193 933.370 697.030 934.059 696.341 C 934.759 695.641 940.767 695.447 951.809 695.768 C 960.989 696.034 968.237 695.970 967.916 695.625 C 967.116 694.767 933.467 693.867 932.652 694.681 "/></g>
<g fill="#D9D9D8FD">
<path d="M 554.070 686.416 C 553.377 687.251 553.019 690.225 553.198 693.666 L 553.500 699.500 560.250 699.796 C 566.323 700.062 567.250 699.841 569.500 697.591 C 572.534 694.557 572.620 693.058 569.955 689.669 C 566.728 685.568 556.511 683.475 554.070 686.416 "/></g>
<g fill="#FCA855FD">
<path d="M 617.750 712.519 C 615.688 716.010 614.000 719.629 614.000 720.562 C 614.000 721.494 615.633 724.065 617.629 726.274 C 627.053 736.706 630.311 753.712 626.004 770.000 C 621.722 786.195 613.288 797.562 602.193 802.089 C 597.058 804.184 594.391 804.470 575.000 805.010 C 555.331 805.558 554.607 805.637 566.500 805.946 C 596.805 806.732 600.166 806.236 609.209 799.640 C 618.512 792.854 625.034 782.602 627.989 770.116 C 629.666 763.034 628.809 743.161 626.562 737.000 C 625.659 734.525 622.914 729.912 620.460 726.749 C 618.007 723.585 616.000 720.704 616.000 720.345 C 616.000 719.987 617.374 716.786 619.053 713.233 C 620.732 709.679 621.969 706.637 621.803 706.473 C 621.636 706.308 619.813 709.029 617.750 712.519 "/></g>
<g fill="#FCA855FD">
<path d="M 289.000 655.621 C 289.000 657.229 295.118 674.272 297.090 678.157 C 298.111 680.168 299.647 683.768 300.503 686.157 C 306.864 703.892 309.539 711.658 311.988 719.500 C 315.756 731.562 323.508 758.905 327.047 772.610 C 328.624 778.720 330.369 784.795 330.923 786.110 C 331.478 787.424 332.427 790.458 333.032 792.851 C 333.637 795.244 334.345 796.989 334.605 796.728 C 335.126 796.207 332.195 784.271 328.289 771.000 C 326.913 766.325 324.548 757.775 323.034 752.000 C 321.520 746.225 319.063 737.450 317.575 732.500 C 316.087 727.550 313.943 720.350 312.811 716.500 C 311.117 710.739 300.266 681.327 292.260 660.796 C 290.424 656.088 289.000 653.828 289.000 655.621 "/></g>
<g fill="#FCA855FD">
<path d="M 642.480 709.000 C 642.732 710.925 643.471 716.550 644.122 721.500 C 644.885 727.299 645.231 743.303 645.096 766.500 C 644.931 794.876 645.163 802.849 646.193 804.149 C 647.320 805.572 650.527 805.847 669.500 806.149 L 691.500 806.500 691.477 796.750 C 691.463 790.788 691.366 789.882 691.227 794.418 C 691.102 798.498 690.727 802.548 690.393 803.418 C 689.866 804.791 687.027 805.000 668.952 805.000 C 654.257 805.000 647.907 804.659 647.403 803.843 C 647.010 803.207 646.782 788.244 646.896 770.593 C 647.109 737.815 646.060 719.397 643.475 710.500 C 642.402 706.811 642.142 706.417 642.480 709.000 "/></g>
<g fill="#FCA855FD">
<path d="M 1040.000 748.022 C 1040.000 750.684 1033.435 768.689 1031.987 770.000 C 1031.233 770.682 1024.095 782.954 1019.480 791.500 C 1017.401 795.350 1014.639 800.435 1013.342 802.799 C 1012.046 805.164 1007.152 812.766 1002.468 819.692 C 997.784 826.618 994.120 832.453 994.326 832.659 C 994.902 833.236 1006.907 816.714 1010.790 810.000 C 1033.673 770.434 1039.873 758.207 1040.904 750.609 C 1041.323 747.524 1041.291 745.000 1040.833 745.000 C 1040.375 745.000 1040.000 746.360 1040.000 748.022 "/></g>
<g fill="#FCA855FD">
<path d="M 680.500 692.611 C 662.274 696.386 657.844 697.448 658.883 697.794 C 659.563 698.021 665.482 697.174 672.034 695.911 C 678.587 694.649 684.159 693.826 684.416 694.083 C 684.674 694.340 685.345 697.411 685.908 700.908 C 686.471 704.404 687.151 707.484 687.419 707.752 C 687.687 708.020 691.228 705.976 695.287 703.210 C 703.052 697.918 708.948 695.575 713.044 696.153 L 715.500 696.500 715.500 714.500 L 715.500 732.500 716.376 714.137 C 717.326 694.237 717.224 693.773 712.094 694.615 C 703.631 696.005 700.137 697.564 692.824 703.211 C 688.437 706.600 687.752 705.986 687.011 698.000 C 686.474 692.221 685.655 691.543 680.500 692.611 "/></g>
<g fill="#FCA855FD">
<path d="M 247.635 794.073 C 243.927 796.989 244.334 798.553 248.080 795.780 C 250.858 793.723 252.466 793.468 264.504 793.174 C 279.507 792.807 279.126 792.628 280.462 800.692 C 280.844 802.998 281.684 805.248 282.328 805.692 C 282.973 806.137 294.300 806.275 307.500 806.000 C 330.019 805.531 330.861 805.448 321.144 804.662 C 315.448 804.202 304.632 804.142 297.108 804.529 L 283.428 805.234 282.214 802.570 C 281.546 801.105 281.000 798.997 281.000 797.887 C 281.000 796.777 280.534 794.998 279.965 793.934 C 279.015 792.160 277.744 792.000 264.600 792.000 C 251.617 792.000 250.022 792.195 247.635 794.073 "/></g>
<g fill="#FCA855FD">
<path d="M 759.407 693.031 C 749.699 694.955 741.589 700.476 736.282 708.774 C 730.870 717.233 726.219 729.476 725.557 737.000 C 725.009 743.239 725.103 743.052 727.889 732.336 C 731.297 719.228 735.663 710.494 741.956 704.202 C 748.759 697.399 755.046 694.923 767.302 694.221 C 773.939 693.841 776.627 693.386 775.000 692.918 C 771.700 691.969 764.499 692.021 759.407 693.031 "/></g>
<g fill="#FCA855FD">
<path d="M 394.389 746.588 C 394.031 748.012 394.019 753.299 394.361 758.338 C 394.703 763.377 395.049 775.760 395.130 785.855 C 395.248 800.549 395.001 804.386 393.889 805.090 C 392.762 805.803 392.810 805.972 394.142 805.985 C 395.082 805.993 396.062 804.891 396.435 803.404 C 396.793 801.977 396.772 788.702 396.388 773.904 C 396.003 759.107 396.053 747.000 396.498 747.000 C 396.943 747.000 398.769 748.238 400.557 749.750 L 403.807 752.500 400.897 748.250 C 397.580 743.405 395.331 742.831 394.389 746.588 "/></g>
<g fill="#FCA855FD">
<path d="M 601.000 651.474 C 601.000 651.735 602.238 652.606 603.750 653.410 C 611.133 657.334 620.413 669.117 622.605 677.350 C 624.221 683.421 624.438 697.718 622.972 701.574 C 621.995 704.144 622.343 705.990 623.574 704.760 C 623.889 704.444 624.655 701.225 625.275 697.605 C 627.581 684.143 622.504 667.009 613.774 658.787 C 608.980 654.272 601.000 649.704 601.000 651.474 "/></g>
<g fill="#FCA855FD">
<path d="M 724.888 756.500 C 723.374 767.093 731.153 786.715 741.009 797.161 C 744.039 800.372 746.895 803.000 747.355 803.000 C 747.815 803.000 749.401 803.861 750.879 804.914 C 753.556 806.820 762.220 809.030 760.704 807.420 C 760.266 806.955 757.864 805.799 755.365 804.850 C 744.619 800.771 735.819 791.552 731.167 779.500 C 729.087 774.111 726.220 761.671 725.750 756.000 L 725.460 752.500 724.888 756.500 "/></g>
<g fill="#FCA855FD">
<path d="M 261.226 715.554 C 257.624 718.078 253.990 725.223 254.089 729.588 L 254.179 733.500 255.493 728.720 C 256.912 723.562 261.319 717.000 263.364 717.000 C 265.146 717.000 269.672 721.970 270.936 725.315 C 272.519 729.505 272.227 733.115 270.011 736.750 C 268.315 739.532 267.462 740.000 264.087 740.000 C 260.832 740.000 259.699 739.434 257.584 736.750 C 256.175 734.963 255.017 734.083 255.011 734.795 C 255.005 735.508 256.105 737.195 257.455 738.545 C 259.261 740.352 260.990 741.000 264.000 741.000 C 270.026 741.000 273.000 737.694 273.000 730.996 C 273.000 725.093 271.505 721.782 266.796 717.258 C 263.626 714.213 263.288 714.110 261.226 715.554 "/></g>
<g fill="#FCA855FD">
<path d="M 774.917 739.782 C 771.396 742.929 770.032 749.444 771.888 754.250 C 774.026 759.783 783.237 762.860 787.559 759.484 C 789.367 758.071 789.317 758.045 786.827 759.109 C 780.864 761.656 772.000 756.502 772.000 750.488 C 772.000 740.892 782.146 735.269 788.076 741.580 C 790.061 743.693 790.516 745.256 790.590 750.219 C 790.639 753.551 790.977 755.503 791.340 754.557 C 792.470 751.612 792.067 746.030 790.506 743.011 C 787.132 736.487 780.210 735.053 774.917 739.782 "/></g>
<g fill="#FCA855FD">
<path d="M 346.160 800.275 C 346.021 804.415 346.299 805.146 348.250 805.778 C 349.488 806.179 359.950 806.280 371.500 806.004 C 391.916 805.514 392.228 805.476 382.712 804.628 C 377.329 804.149 367.623 804.068 361.144 804.450 C 348.017 805.222 347.468 805.014 346.742 798.996 C 346.383 796.020 346.296 796.210 346.160 800.275 "/></g>
<g fill="#FCA855FD">
<path d="M 556.750 741.812 C 555.238 741.988 554.000 742.475 554.000 742.893 C 554.000 743.311 555.296 743.463 556.880 743.231 C 558.464 742.998 562.251 743.326 565.297 743.958 C 572.265 745.404 576.234 748.986 575.799 753.436 C 575.378 757.744 570.575 759.996 561.807 759.998 C 556.013 760.000 554.895 759.698 553.488 757.750 L 551.863 755.500 552.181 758.000 C 552.496 760.472 552.607 760.500 562.172 760.500 C 571.033 760.500 572.061 760.297 574.422 758.076 C 578.823 753.937 577.602 747.397 571.874 744.435 C 568.404 742.640 560.860 741.332 556.750 741.812 "/></g>
<g fill="#FCA855FD">
<path d="M 561.086 684.911 C 569.136 686.042 573.263 690.446 571.494 696.019 C 570.085 700.459 559.434 702.447 554.161 699.254 C 552.032 697.964 551.853 698.002 552.171 699.669 C 552.682 702.344 564.114 702.755 568.940 700.271 C 578.385 695.410 572.283 683.746 560.500 684.135 L 556.500 684.267 561.086 684.911 "/></g>
<g fill="#FCA855FD">
<path d="M 715.640 748.750 C 714.764 752.315 714.129 752.482 703.190 752.028 C 697.656 751.798 692.000 753.463 692.000 755.321 C 692.000 756.025 692.417 755.983 693.200 755.200 C 693.976 754.424 697.995 754.000 704.578 754.000 C 715.812 754.000 717.412 753.254 716.792 748.310 L 716.439 745.500 715.640 748.750 "/></g>
<g fill="#318954FD">
<path d="M 501.207 791.050 C 501.063 800.502 501.363 804.963 502.200 805.800 C 503.009 806.609 506.838 806.936 513.950 806.802 L 524.500 806.605 513.500 806.052 L 502.500 805.500 501.957 791.500 L 501.414 777.500 501.207 791.050 "/></g>
<g fill="#FCA855FD">
<path d="M 989.194 838.019 C 986.353 841.439 985.296 842.017 981.694 842.118 C 979.387 842.183 976.150 842.591 974.500 843.024 C 972.428 843.567 973.961 843.763 979.453 843.655 L 987.407 843.500 990.808 839.035 C 995.053 833.462 993.691 832.605 989.194 838.019 "/></g>
<g fill="#FCA855FD">
<path d="M 941.000 839.931 C 941.000 840.591 941.466 842.002 942.035 843.066 C 942.917 844.713 944.141 844.991 950.285 844.942 C 954.253 844.911 959.300 844.479 961.500 843.984 C 964.360 843.339 962.616 843.233 955.378 843.612 C 945.297 844.140 945.249 844.131 943.128 841.436 C 941.958 839.948 941.000 839.271 941.000 839.931 "/></g>
<g fill="#FCA855FD">
<path d="M 689.657 759.187 C 689.186 760.689 689.241 766.203 689.782 771.687 L 690.748 781.500 690.624 769.000 C 690.541 760.600 690.224 757.381 689.657 759.187 "/></g>
<g fill="#FCA855FD">
<path d="M 969.000 694.912 C 969.000 695.413 971.138 695.751 973.750 695.662 L 978.500 695.500 979.017 704.500 L 979.534 713.500 980.051 705.500 C 980.730 694.979 980.212 694.000 973.965 694.000 C 971.234 694.000 969.000 694.410 969.000 694.912 "/></g>
<g fill="#D9D9D8FD">
<path d="M 630.661 773.500 C 630.199 774.600 629.631 776.497 629.397 777.715 C 629.164 778.934 628.024 781.540 626.863 783.508 C 625.702 785.476 625.094 787.404 625.513 787.793 C 625.931 788.182 626.476 787.935 626.722 787.244 C 626.969 786.553 627.577 786.239 628.074 786.546 C 628.571 786.853 628.731 786.464 628.431 785.681 C 628.131 784.898 628.617 783.977 629.511 783.634 C 630.623 783.207 630.932 782.360 630.486 780.957 C 630.128 779.828 630.242 778.363 630.741 777.702 C 631.239 777.041 631.614 775.375 631.573 774.000 C 631.506 771.715 631.428 771.672 630.661 773.500 "/></g>
<g fill="#318954FD">
<path d="M 854.872 805.250 C 856.083 806.794 857.969 806.974 870.872 806.780 L 885.500 806.559 871.068 806.251 C 861.663 806.050 856.090 805.517 855.068 804.721 C 853.686 803.645 853.663 803.708 854.872 805.250 "/></g>
</svg>
