<?xml version="1.0" standalone="no"?>
<!DOCTYPE svg PUBLIC "-//W3C//DTD SVG 20010904//EN"
 "http://www.w3.org/TR/2001/REC-SVG-20010904/DTD/svg10.dtd">
<svg version="1.0" xmlns="http://www.w3.org/2000/svg"
 width="512.000000pt" height="512.000000pt" viewBox="0 0 512.000000 512.000000"
 preserveAspectRatio="xMidYMid meet">

<g transform="translate(0.000000,512.000000) scale(0.100000,-0.100000)"
fill="#000000" stroke="none">
<path d="M2385 4784 c-324 -58 -603 -263 -748 -549 -131 -261 -152 -545 -59
-815 163 -473 653 -766 1147 -685 442 72 788 418 860 860 36 219 1 438 -101
636 -58 112 -97 167 -185 257 -238 243 -583 355 -914 296z m-215 -630 c138
-92 159 -120 129 -175 -15 -29 -216 -159 -245 -159 -37 0 -74 42 -74 85 0 31
6 39 52 72 l51 37 -28 21 c-80 56 -97 105 -53 152 35 38 72 30 168 -33z m947
34 c15 -14 23 -33 23 -55 0 -35 -17 -58 -75 -99 l-29 -20 46 -32 c48 -33 58
-48 58 -88 0 -32 -42 -74 -74 -74 -29 0 -230 130 -245 159 -30 55 -9 83 129
175 94 62 129 69 167 34z m-470 -619 c146 -20 276 -79 379 -172 41 -38 48 -49
48 -82 0 -78 -85 -101 -151 -41 -107 95 -218 138 -363 138 -145 0 -256 -43
-363 -138 -66 -60 -151 -37 -151 41 0 33 7 44 48 82 99 89 234 152 367 171 90
13 98 13 186 1z"/>
<path d="M540 4223 c-98 -34 -170 -107 -204 -206 -14 -43 -16 -190 -16 -1552
l0 -1505 903 0 c610 0 923 -4 963 -11 76 -14 187 -66 244 -114 l45 -38 3 879
c1 634 -1 880 -9 885 -6 3 -39 9 -73 13 -173 18 -398 111 -557 230 -197 148
-343 353 -418 584 -45 138 -56 214 -56 377 1 164 14 248 64 392 l29 83 -437 0
c-370 -1 -443 -3 -481 -17z m1115 -1688 c33 -32 33 -78 0 -110 l-24 -25 -471
0 -471 0 -24 25 c-16 15 -25 36 -25 55 0 19 9 40 25 55 l24 25 471 0 471 0 24
-25z m640 -400 c33 -32 33 -78 0 -110 l-24 -25 -791 0 -791 0 -24 25 c-16 15
-25 36 -25 55 0 19 9 40 25 55 l24 25 791 0 791 0 24 -25z m0 -400 c33 -32 33
-78 0 -110 l-24 -25 -791 0 -791 0 -24 25 c-16 15 -25 36 -25 55 0 19 9 40 25
55 l24 25 791 0 791 0 24 -25z m0 -400 c33 -32 33 -78 0 -110 l-24 -25 -791 0
-791 0 -24 25 c-16 15 -25 36 -25 55 0 19 9 40 25 55 l24 25 791 0 791 0 24
-25z"/>
<path d="M3691 4157 c50 -144 63 -228 64 -392 0 -163 -11 -239 -56 -377 -78
-243 -254 -476 -463 -617 -151 -102 -347 -178 -504 -196 -31 -4 -65 -9 -74
-11 -17 -5 -18 -56 -18 -885 0 -483 3 -879 6 -879 3 0 25 16 47 36 55 47 168
100 241 113 40 7 362 11 963 11 l903 0 -2 1522 -3 1523 -36 65 c-23 42 -52 78
-83 101 -90 68 -98 69 -581 69 l-433 0 29 -83z m124 -1622 c16 -15 25 -36 25
-55 0 -19 -9 -40 -25 -55 l-24 -25 -471 0 -471 0 -24 25 c-16 15 -25 36 -25
55 0 19 9 40 25 55 l24 25 471 0 471 0 24 -25z m640 -400 c16 -15 25 -36 25
-55 0 -19 -9 -40 -25 -55 l-24 -25 -791 0 -791 0 -24 25 c-16 15 -25 36 -25
55 0 19 9 40 25 55 l24 25 791 0 791 0 24 -25z m0 -400 c16 -15 25 -36 25 -55
0 -19 -9 -40 -25 -55 l-24 -25 -791 0 -791 0 -24 25 c-16 15 -25 36 -25 55 0
19 9 40 25 55 l24 25 791 0 791 0 24 -25z m0 -400 c16 -15 25 -36 25 -55 0
-19 -9 -40 -25 -55 l-24 -25 -791 0 -791 0 -24 25 c-16 15 -25 36 -25 55 0 19
9 40 25 55 l24 25 791 0 791 0 24 -25z"/>
<path d="M320 696 c0 -174 47 -268 170 -335 l65 -36 964 -3 964 -2 -5 90 c-5
79 -11 101 -42 164 -43 88 -102 146 -194 189 l-67 32 -927 3 -928 2 0 -104z"/>
<path d="M2946 789 c-62 -15 -153 -68 -197 -116 -66 -71 -101 -158 -107 -264
l-5 -89 964 2 964 3 63 34 c70 38 101 70 139 145 23 45 27 66 31 174 l4 122
-908 -1 c-508 -1 -926 -5 -948 -10z"/>
</g>
</svg>
