<?xml version="1.0" encoding="iso-8859-1"?>
<!-- Uploaded to: SVG Repo, www.svgrepo.com, Generator: SVG Repo Mixer Tools -->
<svg height="800px" width="800px" version="1.1" id="Layer_1" xmlns="http://www.w3.org/2000/svg" xmlns:xlink="http://www.w3.org/1999/xlink" 
	 viewBox="0 0 451.277 451.277" xml:space="preserve">
<circle style="fill:#EA8953;" cx="225.638" cy="225.638" r="225.638"/>
<path style="opacity:0.1;enable-background:new    ;" d="M448.116,263.254L326.36,141.498l-23.939,9.111l-54.242-54.242h-45.038
	l-5.359,33.238c-15.749,4.56-29.853,12.834-41.371,23.882l-31.498-11.988l-22.519,39.02l25.303,25.303
	c-1.326,6.407-2.126,13-2.126,19.829c0,8.227,1.128,16.219,3.009,23.882l-26.186,21.249l22.519,39.02l138.319,138.318
	C357.716,432.267,432.254,357.735,448.116,263.254z"/>
<circle style="fill:#EBF0F3;" cx="225.638" cy="225.638" r="74.926"/>
<path style="fill:#64798A;" d="M225.637,145.135c-44.39,0-80.503,36.113-80.503,80.503s36.113,80.503,80.503,80.503
	c44.391,0,80.506-36.113,80.506-80.503S270.028,145.135,225.637,145.135z M299.495,228.917c-0.503,11.39-3.684,22.638-9.219,32.582
	h-28.324c2.468-10.114,3.826-21.068,4.044-32.582H299.495z M299.495,222.36h-33.498c-0.218-11.514-1.577-22.468-4.044-32.582h28.324
	C295.811,199.722,298.993,210.97,299.495,222.36z M228.917,222.36v-32.582h26.141c2.631,10.045,4.141,21.293,4.382,32.582H228.917z
	 M260.171,183.227c-3.785-12.414-9.164-22.413-15.623-29.066c16.842,4.453,31.543,14.71,41.624,29.066H260.171z M228.917,183.227
	v-31.145c9.48,2.13,18.474,13.69,24.213,31.145H228.917z M228.917,261.499v-32.582h30.523c-0.241,11.294-1.752,22.542-4.382,32.582
	H228.917z M253.131,268.05c-5.739,17.455-14.733,29.015-24.213,31.145V268.05H253.131z M244.548,297.116
	c6.462-6.657,11.84-16.652,15.623-29.066h26.001C276.09,282.406,261.39,292.663,244.548,297.116z M222.359,189.778v32.582h-30.521
	c0.241-11.298,1.751-22.546,4.382-32.582H222.359z M165.105,183.227c10.082-14.356,24.782-24.612,41.624-29.066
	c-6.46,6.652-11.838,16.652-15.624,29.066H165.105z M222.359,228.917v32.582H196.22c-2.631-10.031-4.141-21.279-4.382-32.582
	H222.359z M151.779,222.36c0.505-11.395,3.687-22.643,9.221-32.582h28.324c-2.465,10.114-3.824,21.068-4.044,32.582H151.779z
	 M185.28,228.917c0.22,11.514,1.579,22.468,4.044,32.582H161c-5.534-9.939-8.716-21.187-9.221-32.582H185.28z M191.106,268.05
	c3.783,12.414,9.162,22.409,15.624,29.066c-16.842-4.453-31.543-14.71-41.624-29.066H191.106z M222.359,268.05v31.145
	c-9.48-2.13-18.474-13.69-24.213-31.145H222.359z M198.146,183.227c5.739-17.455,14.733-29.015,24.213-31.145v31.145H198.146z"/>
<path style="fill:#FCD462;" d="M325.703,225.638c0-8.244-1.107-16.212-2.987-23.876l26.143-21.264l-22.517-39.002l-31.471,12.001
	c-11.509-11.049-25.634-19.355-41.379-23.915l-5.337-33.228h-45.035l-5.337,33.229c-15.746,4.559-29.869,12.865-41.379,23.914
	l-31.47-12.002l-22.518,39.002l26.144,21.264c-1.88,7.664-2.987,15.632-2.987,23.876s1.107,16.211,2.987,23.876l-26.144,21.265
	l22.518,39.002l31.47-12.002c11.51,11.048,25.633,19.354,41.379,23.914l5.337,33.229h45.035l5.337-33.229
	c15.745-4.559,29.87-12.866,41.379-23.914l31.471,12.002l22.517-39.002l-26.143-21.264
	C324.596,241.85,325.703,233.882,325.703,225.638z M225.637,306.142c-44.391,0-80.504-36.113-80.504-80.504
	c0-44.39,36.113-80.503,80.504-80.503s80.506,36.113,80.506,80.503C306.143,270.029,270.028,306.142,225.637,306.142z"/>
</svg>